<svg class="main-svg" xmlns="http://www.w3.org/2000/svg" xmlns:xlink="http://www.w3.org/1999/xlink" width="3600" height="1860" style="" viewBox="0 0 1200 620"><rect x="0" y="0" width="1200" height="620" style="fill: rgb(0, 0, 0); fill-opacity: 0;"/><defs id="defs-d85b44"><g class="clips"><clipPath id="clipd85b44xyplot" class="plotclip"><rect width="847" height="480"/></clipPath><clipPath id="clipd85b44xy2plot" class="plotclip"><rect width="847" height="480"/></clipPath><clipPath class="axesclip" id="clipd85b44x"><rect x="70" y="0" width="847" height="620"/></clipPath><clipPath class="axesclip" id="clipd85b44y"><rect x="0" y="70" width="1200" height="480"/></clipPath><clipPath class="axesclip" id="clipd85b44xy"><rect x="70" y="70" width="847" height="480"/></clipPath><clipPath class="axesclip" id="clipd85b44y2"><rect x="0" y="70" width="1200" height="480"/></clipPath><clipPath class="axesclip" id="clipd85b44xy2"><rect x="70" y="70" width="847" height="480"/></clipPath></g><g class="gradients"/><g class="patterns"/></defs><g class="bglayer"><rect class="bg" x="70" y="70" width="847" height="480" style="fill: rgb(255, 255, 255); fill-opacity: 1; stroke-width: 0;"/></g><g class="layer-below"><g class="imagelayer"/><g class="shapelayer"/></g><g class="cartesianlayer"><g class="subplot xy"><g class="layer-subplot"><g class="shapelayer"/><g class="imagelayer"/></g><g class="minor-gridlayer"><g class="x"/><g class="y"/><g class="y2"/></g><g class="gridlayer"><g class="x"><path class="xgrid crisp" transform="translate(197.37,0)" d="M0,70v480" style="stroke: rgb(235, 240, 248); stroke-opacity: 1; stroke-width: 1px;"/><path class="xgrid crisp" transform="translate(328.15,0)" d="M0,70v480" style="stroke: rgb(235, 240, 248); stroke-opacity: 1; stroke-width: 1px;"/><path class="xgrid crisp" transform="translate(459.1,0)" d="M0,70v480" style="stroke: rgb(235, 240, 248); stroke-opacity: 1; stroke-width: 1px;"/><path class="xgrid crisp" transform="translate(589.88,0)" d="M0,70v480" style="stroke: rgb(235, 240, 248); stroke-opacity: 1; stroke-width: 1px;"/><path class="xgrid crisp" transform="translate(720.84,0)" d="M0,70v480" style="stroke: rgb(235, 240, 248); stroke-opacity: 1; stroke-width: 1px;"/><path class="xgrid crisp" transform="translate(851.61,0)" d="M0,70v480" style="stroke: rgb(235, 240, 248); stroke-opacity: 1; stroke-width: 1px;"/></g><g class="y"><path class="ygrid crisp" transform="translate(0,471.48)" d="M70,0h847" style="stroke: rgb(235, 240, 248); stroke-opacity: 1; stroke-width: 1px;"/><path class="ygrid crisp" transform="translate(0,403.57)" d="M70,0h847" style="stroke: rgb(235, 240, 248); stroke-opacity: 1; stroke-width: 1px;"/><path class="ygrid crisp" transform="translate(0,335.66)" d="M70,0h847" style="stroke: rgb(235, 240, 248); stroke-opacity: 1; stroke-width: 1px;"/><path class="ygrid crisp" transform="translate(0,267.75)" d="M70,0h847" style="stroke: rgb(235, 240, 248); stroke-opacity: 1; stroke-width: 1px;"/><path class="ygrid crisp" transform="translate(0,199.84)" d="M70,0h847" style="stroke: rgb(235, 240, 248); stroke-opacity: 1; stroke-width: 1px;"/><path class="ygrid crisp" transform="translate(0,131.93)" d="M70,0h847" style="stroke: rgb(235, 240, 248); stroke-opacity: 1; stroke-width: 1px;"/></g><g class="y2"/></g><g class="zerolinelayer"><path class="yzl zl crisp" transform="translate(0,539.39)" d="M70,0h847" style="stroke: rgb(235, 240, 248); stroke-opacity: 1; stroke-width: 2px;"/><path class="y2zl zl crisp" transform="translate(0,545.0899999999999)" d="M70,0h847" style="stroke: rgb(235, 240, 248); stroke-opacity: 1; stroke-width: 2px;"/></g><g class="layer-between"><g class="shapelayer"/><g class="imagelayer"/></g><path class="xlines-below"/><path class="ylines-below"/><g class="overlines-below"><path class="xy2-x"/><path class="xy2-y"/></g><g class="xaxislayer-below"/><g class="yaxislayer-below"/><g class="overaxes-below"><g class="xy2-x"/><g class="xy2-y"/></g><g class="overplot"><g class="xy" transform="translate(70,70)" clip-path="url(#clipd85b44xyplot)"><g class="scatterlayer mlayer"><g class="trace scatter trace6bc213" style="stroke-miterlimit: 2; opacity: 1;"><g class="fills"/><g class="errorbars"/><g class="lines"><path class="js-line" d="M0,114.47L5.73,120.79L5.91,114.4L6.09,113.16L12.54,108.57L15.76,111.38L58.22,110.97L59.3,114.55L70.05,119.13L74.52,121.84L75.06,129.33L75.78,144.39L79,151.86L84.02,171.97L84.2,180.73L85.99,182.58L86.17,185.79L97.46,193.01L105.34,194.48L113.04,205.32L116.27,213.6L131.67,222.78L132.03,221.69L133.82,236.55L137.05,244.22L137.4,242.54L137.58,253.34L139.2,272.05L143.5,270.89L144.03,273.9L144.21,269.2L147.62,262.58L148.15,256.07L149.94,234.99L152.63,229.9L152.81,226.3L158.36,222.7L168.4,222.77L174.85,219.92L179.86,214.74L180.58,208.65L181.47,205.27L185.42,204.97L195.81,200.69L197.42,196.56L201.54,192.42L201.9,187.18L206.38,189.07L207.27,184.11L211.39,185.9L212.29,180.66L212.47,184.94L212.82,178.77L216.77,181.14L217.66,176.96L217.84,177.59L218.56,176.41L218.74,176.95L218.92,172.13L221.6,168.27L222.32,170.97L234.86,170.48L238.62,171.13L243.64,178.17L245.07,173.77L245.25,175.62L248.47,172.58L248.65,168.21L249.19,171.77L249.55,175.36L250.27,171.44L254.03,174.68L254.39,176.28L258.69,176.39L259.22,181.41L259.94,181.24L260.3,181.54L260.84,175.33L261.37,177.15L264.42,173.32L269.79,172.95L270.15,170.32L270.87,167.52L271.05,171.61L275.17,173.45L275.35,175.86L276.24,169.97L276.78,167.28L280.9,167.99L281.62,163.91L281.98,168.62L287.35,163.88L287.71,164.76L301.68,166.26L301.86,162.2L308.67,158.22L317.45,162.67L317.98,158.26L318.16,157.88L343.96,161.74L344.68,161.7L344.86,157.19L350.77,154.6L354.17,156.65L354.35,154.45L355.6,153.14L367.07,150.51L380.33,145.94L381.94,144.62L387.67,150.46L397.34,147.45L397.88,146.04L402.36,148.5L403.26,151.32L407.2,152.75L407.56,148.98L408.09,149.08L408.81,150.25L412.57,149.99L412.75,148.03L413.83,149.73L433.71,152.23L435.68,151.95L439.62,148.76L441.06,150.75L450.37,149.25L450.73,141.34L455.39,136.82L455.93,138.81L456.28,137.54L457,140.25L461.3,137.4L462.02,145.71L465.06,146.06L465.24,146.54L465.42,140.58L465.96,140.7L466.14,135.65L467.21,133.06L467.39,136.15L470.97,134.16L472.41,134.56L472.59,133.51L475.45,132.21L476.35,130.98L477.78,130.89L481.54,130.93L494.08,134.17L502.5,133.01L503.4,130.47L518.09,130.43L519.34,134.5L520.42,128.36L523.28,127.38L523.82,125.81L528.3,130.32L529.2,128.67L530.63,129.94L533.5,129.12L534.03,127.65L534.39,130.74L535.65,131.6L536.18,134.46L538.87,134.09L539.77,135.35L544.42,137.17L546.21,135.36L546.39,136.12L552.31,135.82L556.96,139.23L561.98,139.58L581.69,139.12L583.66,135.2L583.84,137.34L587.78,134.84L599.06,135.64L599.24,136.48L602.82,140.17L609.27,135.93L610.53,139.27L615.19,137.52L626.11,133.79L640.62,134.02L651.37,130.55L651.73,132.28L652.45,125.78L657.28,123.35L666.6,119.14L672.15,118.3L672.87,113.56L673.41,109.65L677.89,104.88L679.32,98.8L682.01,97.45L693.65,93.74L720.34,91.64L721.78,88.39L730.2,81.18L730.38,76.05L730.56,76.95L730.73,74.87L731.99,73.11L734.68,71.12L735.57,68.25L735.75,66.77L741.3,69.35L741.48,64.75L746.14,66.46L746.5,70.76L762.98,68.47L768,67.43L768.18,61.82L768.36,63.27L769.61,59.62L772.48,59.14L777.13,56.84L778.03,52.17L778.21,54.62L787.7,52.79L788.78,53.21L789.85,49.43L792.9,46.28L793.44,44.73L793.97,45.11L794.51,45.11L795.23,38.54L798.27,38.73L800.06,32.3L803.65,33.07L805.44,24.5L805.8,25.06L826.76,25.67L836.07,24.02L836.25,24.64L838.04,24L841.98,25.47" style="vector-effect: none; fill: none; stroke: rgb(255, 0, 0); stroke-opacity: 1; stroke-width: 2px; opacity: 1;"/></g><g class="points"/><g class="text"/></g><g class="trace scatter traceee32fc" style="stroke-miterlimit: 2; opacity: 1;"><g class="fills"/><g class="errorbars"/><g class="lines"><path class="js-line" d="M0,286.15L5.73,285.98L5.91,288.53L6.09,291.88L15.76,294.73L75.06,303.07L75.42,308.93L75.78,311.81L79,311.91L80.26,314.26L84.02,315.18L84.2,318.09L85.99,320.25L86.17,321.68L97.46,322.72L105.34,323.76L105.52,327.89L133.64,327.7L135.97,329.08L137.4,331.22L137.58,333.55L138.48,336.19L138.84,338.15L139.2,342.27L143.5,345.83L144.21,351.7L147.62,351.28L150.48,336.4L152.63,336.3L152.81,332.81L158.36,330.01L168.4,328.16L179.86,323.96L197.42,322.75L206.38,321.14L207.27,321.63L212.29,319.65L212.65,318.56L216.77,320.17L217.66,318.02L217.84,315.23L218.56,314.91L218.74,313.77L221.6,310.19L222.32,311.62L243.64,309.58L245.25,306.99L248.47,305.62L254.03,300.97L254.39,301.65L258.69,303.08L260.3,299.76L260.84,296.13L264.42,296.52L269.43,295.41L269.79,298.28L270.33,297.94L271.05,299.06L275.17,301.34L275.35,300.2L276.78,300.85L280.9,301.19L281.98,299.1L301.68,296.48L301.86,295.68L343.96,293.41L344.68,291.47L344.86,293.25L363.31,291.6L367.07,292.81L380.33,290.9L381.94,293.88L397.34,295.15L403.26,294.69L412.57,292.6L412.75,291.15L439.62,291.6L441.06,292.1L450.73,294.76L455.75,292.37L457,294.02L461.66,291.6L461.84,290.3L462.91,290.86L465.06,289.32L465.24,287.29L465.96,288.76L466.14,284.99L467.39,288.06L467.57,291.1L470.26,290.55L470.44,291.73L470.97,289.48L472.41,287.52L472.59,288.99L475.81,285.85L477.78,285.25L502.5,282.88L519.34,283.11L519.7,284.04L523.28,282.23L530.63,283.21L533.5,283.27L534.03,284.23L534.39,282.69L535.82,283.94L536,282.91L536.18,285.49L539.77,283.29L553.2,282.81L561.98,279.69L581.69,279.47L583.66,280.43L599.06,278.52L609.63,279.69L610.71,275.79L615.19,272.05L640.62,271.02L651.73,267.67L652.45,267.6L657.28,264.86L672.33,266.25L679.32,266L693.65,262.64L730.2,261.94L730.73,259.47L734.85,258.26L735.57,258.28L735.75,255.35L741.3,253.61L768,251.12L768.36,248.33L772.48,247.58L777.31,245.82L777.67,244.46L778.03,244.46L779.46,243.13L787.7,241.61L789.85,240.4L793.44,238.93L793.97,237.7L798.27,238.22L799.17,238.77L799.35,238.37L800.06,238.97L800.96,239.63L803.47,238.08L803.65,235.81L803.83,236.41L804.72,234.79L805.44,235.4L805.8,232.44L836.07,232.84L836.25,231.79" style="vector-effect: none; fill: none; stroke: rgb(115, 38, 0); stroke-opacity: 1; stroke-width: 2px; opacity: 1;"/></g><g class="points"/><g class="text"/></g><g class="trace scatter traced5f423" style="stroke-miterlimit: 2; opacity: 1;"><g class="fills"/><g class="errorbars"/><g class="lines"><path class="js-line" d="M0,355.36L5.73,357.74L5.91,359.63L6.09,363.51L15.76,365.08L79,368.73L80.26,370.3L83.12,370.52L84.02,372.19L84.2,372.68L85.99,371.37L86.17,372.61L97.46,372.04L113.04,373.13L133.28,375.97L133.64,375.31L135.97,376.61L137.58,376.48L137.76,374.98L138.48,376.55L139.2,379.94L144.03,380.54L144.21,381.32L147.62,380.66L148.15,382.21L148.87,384.8L149.05,385.63L149.94,386.67L151.2,383.64L152.63,382.58L152.81,379.1L166.96,379.12L168.4,376.46L179.86,374.77L206.38,371.97L207.27,371.53L212.29,372.28L212.47,370.68L212.65,371.19L214.97,369.91L216.23,373.16L216.77,369.66L217.84,369.94L218.56,368.88L218.74,371.05L221.6,367.44L243.64,365.2L245.25,363.95L248.47,365.12L254.03,364.92L254.39,364.04L258.69,362.21L260.3,359.13L260.84,355.6L264.42,354.21L267.11,354.09L269.43,355.23L269.79,357.73L270.33,357.53L275.17,358.08L275.35,359.89L276.78,360.03L281.62,360.46L281.98,359.11L301.86,357.97L343.96,357.07L344.68,354.95L344.86,355.77L362.95,356.23L363.31,354.15L367.07,355.08L411.32,355.92L412.57,354.08L412.75,354.59L433.71,354.54L441.06,355.39L450.73,356.58L457,357.13L461.66,358.36L461.84,356.1L462.91,354.62L465.06,354.17L465.24,355.99L467.21,352.56L467.39,353.34L467.57,355.1L470.26,356.2L470.97,355.54L472.41,354.86L475.45,354.03L475.81,351.85L477.78,350.81L484.41,350.15L519.34,350.92L519.7,349.82L523.28,350.22L524.54,351.84L534.39,351.95L535.82,350.38L536,351.48L539.77,350.14L553.2,346.76L581.69,346.35L583.66,344.14L609.63,344.09L610.71,342.17L615.19,340.23L640.62,338.29L652.27,336.62L652.45,336.13L657.28,334.05L672.33,333.52L676.27,334.9L679.32,334.83L693.65,333.21L730.38,332.11L730.56,329.52L730.73,328.25L734.85,327.23L735.57,327.77L735.75,327.46L741.3,325.74L754.92,325.12L768.18,322.95L768.36,321.42L779.46,320.86L793.97,318.23L795.23,317.75L801.14,317.56L802.75,317.84L805.44,318.86L805.8,316.89L826.76,317.12" style="vector-effect: none; fill: none; stroke: rgb(168, 112, 0); stroke-opacity: 1; stroke-width: 2px; opacity: 1;"/></g><g class="points"/><g class="text"/></g><g class="trace scatter traced31431" style="stroke-miterlimit: 2; opacity: 1;"><g class="fills"/><g class="errorbars"/><g class="lines"><path class="js-line" d="M0,421.52L5.73,422.91L5.91,423.78L6.09,423.43L12.54,421.69L12.9,420.52L15.76,419.35L30.81,419.23L58.22,420.12L58.94,419.55L59.3,420.02L75.06,420.19L75.78,420.85L79,421.31L80.26,422.77L82.23,423.56L86.17,429.9L87.06,429.28L105.34,430.33L105.52,431.39L132.03,429.72L133.28,430.83L133.64,429.2L135.43,428.69L135.97,428.42L137.05,429.7L137.76,430.65L138.48,431.01L139.2,433.57L144.03,433.5L144.21,431.96L147.62,431.58L148.15,431.18L148.69,429.55L148.87,430.36L149.05,429.37L149.41,427.32L150.48,425.37L151.02,426.37L151.2,426.89L151.38,426.24L152.63,424.49L152.81,423.74L158.36,424.22L174.85,426.89L178.25,428.06L180.58,427.28L183.45,427.28L197.42,427.48L204.76,425.81L207.27,423.01L212.29,421.15L212.65,422.47L214.97,422.36L216.23,420.43L216.77,421.8L217.66,420.63L217.84,420.91L218.38,422.47L218.56,420.79L218.74,421.15L221.6,421.51L222.32,420.32L243.64,421.73L248.47,422.8L254.03,423.02L254.39,421.72L258.51,420.4L258.69,420.17L259.22,421.1L260.84,421.94L264.42,421.05L269.43,423.22L269.79,425.09L271.05,424.92L273.02,425.5L273.2,426.36L275.17,426.31L275.35,427.34L276.78,428.46L277.32,426.92L280.9,425.99L281.62,424.19L293.08,425.25L293.26,425.83L294.52,425.37L301.86,426L315.12,427.55L315.3,427.29L318.16,426.05L343.96,426.38L344.68,425.52L344.86,424.84L350.41,426.01L353.1,427.14L354.17,426.57L363.31,424.19L367.07,424.53L387.85,422.51L397.34,422.7L408.81,421.91L409.17,422.86L409.53,424.31L411.32,424.74L412.75,423.86L413.83,424.53L433.71,423.59L435.68,421.97L441.06,421.77L442.31,420.98L443.21,420.6L443.56,421.32L455.75,423.22L457,422.06L461.84,421.39L462.91,422.39L465.24,425.31L465.96,426.4L467.21,427.15L467.39,426.16L467.57,425.37L468.64,424.5L470.26,424.47L470.44,425.23L472.41,425.61L473.12,424.7L473.3,425.46L473.48,424.99L473.84,423.68L477.78,426.23L478.14,425.13L479.39,424.79L480.83,424.63L481.54,425.84L484.41,426.2L488.35,425.29L501.79,423.89L502.5,421.96L506.44,420.05L510.21,420.66L519.34,422.12L519.7,422.6L522.57,423.13L524.72,419.94L530.63,419.96L535.82,421.57L536,422.07L537.08,423.18L537.79,422.55L538.51,423.57L539.77,423.81L539.94,424.31L546.21,424.49L547.29,422.4L547.47,422.41L553.2,422.6L561.98,423.86L577.74,424.75L581.69,425.67L583.66,424.88L595.84,423.76L596.2,423.51L599.06,422.51L601.57,421.76L606.95,422.14L609.63,422.52L610.53,421.52L610.71,422.17L615.19,421.94L622.71,420.37L626.65,418.54L651.73,418.91L652.27,417.9L652.45,417.46L655.85,416.52L657.28,414.53L672.33,412.91L677.89,411.78L679.32,410.34L680.93,411.62L693.65,410.73L728.23,408.42L728.58,407.06L730.73,405.42L734.85,405.02L735.75,404.8L738.98,404.62L746.5,403.96L754.56,403.96L754.92,402.41L768,401.13L768.36,401.86L772.48,401.07L779.46,399.41L787.7,399.92L789.85,401.3L792.9,401.3L793.97,400.21L794.87,399.81L795.23,399.09L798.09,398.52L799.17,400.11L799.35,400.63L801.14,400.04L802.39,400.18L803.65,398.34L803.83,398.61L804.72,398.37L805.8,399.33L812.42,399.42L838.04,398.39L840.91,397.44L841.98,396.8" style="vector-effect: none; fill: none; stroke: rgb(255, 255, 0); stroke-opacity: 1; stroke-width: 2px; opacity: 1;"/></g><g class="points"/><g class="text"/></g><g class="trace scatter trace417274" style="stroke-miterlimit: 2; opacity: 1;"><g class="fills"/><g class="errorbars"/><g class="lines"><path class="js-line" d="M0,428.87L6.09,430.94L12.54,430.57L12.9,429.04L15.76,427.92L30.81,426.82L58.22,426.66L58.94,427.44L59.3,426.91L75.06,427.29L80.26,428.37L80.79,429.61L83.12,431.44L83.84,432.26L84.2,434.46L85.99,434.99L86.17,435.55L87.06,435.13L97.46,435.85L104.8,435.39L105.52,436.64L113.04,436.16L118.59,435.16L132.03,436.08L133.28,435.72L133.64,434.14L135.97,433.23L137.05,434.34L137.76,435.09L138.48,435.39L139.2,437.62L144.03,437.55L144.21,436.17L147.62,435.78L148.15,435.44L148.69,433.95L148.87,434.69L149.05,433.8L149.41,433.29L150.48,431.75L151.02,432.92L151.38,431.15L152.63,430.39L152.81,430.08L158.36,430.57L168.4,432.91L174.85,433.16L178.25,433.26L179.86,432.43L195.81,432.63L197.42,431.46L204.76,432.33L206.38,431.27L207.27,430.34L212.29,429.3L212.47,428.16L212.65,428.21L214.97,429.75L216.77,429.46L217.84,429.22L218.56,428.4L218.74,429.19L221.6,428.54L222.32,429.25L243.64,428.69L245.25,427.31L248.47,428.61L254.39,430.9L258.51,430.19L259.22,428.94L260.3,428.13L260.84,428.45L264.42,428.35L269.43,429.34L269.79,430.85L270.87,432.45L273.02,432.05L273.2,432.99L275.17,433.82L275.35,433.71L276.78,434.08L277.14,434.2L277.32,432.75L281.62,431.79L286.27,432.29L295.05,432.49L301.68,433.26L301.86,433.5L315.12,432.66L315.3,432.18L318.16,431.27L344.86,431.87L352.56,432.5L354.17,431.44L362.95,430.7L363.31,430.51L367.07,430.06L381.22,430.13L387.85,431.38L403.26,430.9L407.56,429.95L408.81,430.03L409.35,428.8L409.53,429.14L411.32,430.22L412.57,430.94L412.75,432.72L413.83,431.97L433.71,430.85L439.62,429.24L441.06,428.04L443.21,428.62L443.39,429.13L462.91,429.42L465.06,430.49L466.14,433.71L467.21,433.78L467.57,433.19L468.64,432.07L470.26,431.83L470.44,432.69L470.97,433.29L472.41,433.38L474.2,432.29L474.74,432.93L475.45,432.39L475.81,433.4L476.35,433.34L477.78,434.06L478.14,434.06L478.86,432.59L481.54,433.95L484.41,434.14L488.35,434.09L489.96,432.87L501.79,432.28L501.97,431.2L502.5,429.55L506.44,429.75L510.21,431.55L519.34,432.02L519.7,432.48L522.57,431.42L523.28,430.24L524.54,429.67L524.72,429.75L530.63,430.62L534.03,430.34L534.39,431.11L536,430.44L537.08,430.93L538.51,431.74L539.77,431.02L539.94,432.05L546.21,430.92L546.39,430.05L547.29,430.33L547.47,429.94L553.2,430.07L561.98,431.05L566.64,430.69L568.25,431.27L577.74,431.76L583.66,430.51L596.2,429.47L606.95,428.8L609.63,429.12L610.71,428.88L615.19,428.03L626.65,427.85L629.52,426.19L640.62,425.38L644.92,425.84L652.45,425.38L655.85,424.49L657.28,423.03L672.33,422.55L676.27,421.24L677.89,422.28L679.32,422L680.39,421.02L680.93,421.35L693.65,420.51L705.12,419.22L721.78,418.47L730.38,417.32L730.73,416.48L746.5,414.46L754.56,414.46L754.92,413.08L768,412.1L768.36,413.19L772.48,412.39L777.31,411.16L777.67,410.18L779.46,410.2L787.7,411.05L789.85,411.67L792.9,411.67L793.44,411.67L793.97,410.64L795.23,410.76L798.09,409.7L798.27,409.26L799.17,410.6L800.06,411.25L800.96,411.61L801.14,410.79L802.39,410.96L804.9,411.01L805.44,411.4L805.8,411.77L812.42,411.95L838.04,411.1" style="vector-effect: none; fill: none; stroke: rgb(55, 86, 35); stroke-opacity: 1; stroke-width: 2px; opacity: 1;"/></g><g class="points"/><g class="text"/></g><g class="trace scatter trace25fa81" style="stroke-miterlimit: 2; opacity: 1;"><g class="fills"/><g class="errorbars"/><g class="lines"><path class="js-line" d="M0,440.79L12.54,441.83L12.9,441.35L15.76,439.97L30.81,438.84L59.3,438.19L75.06,437.71L75.78,437.93L79,437.96L83.12,440.13L83.3,440.96L83.84,440.74L84.02,442.05L84.2,442.41L85.99,443.05L86.17,443.63L87.06,443.51L118.59,443.45L132.03,443.06L135.97,440.7L137.05,440.62L137.58,441.52L137.76,440.97L138.48,440.79L139.2,442.48L144.03,443.3L147.62,442.91L147.8,441.23L148.15,439.62L148.69,440.3L148.87,439.8L149.41,438.11L149.94,437.54L151.38,438.73L151.92,439.09L153.71,438.93L158.36,439.21L166.96,439.63L168.4,441.03L179.86,442.66L183.27,441.71L183.45,442.17L195.81,441.1L197.42,439.75L204.76,439.08L207.27,437.31L212.29,437.42L212.65,438.97L214.97,439.14L215.33,438.78L216.23,438.96L245.25,437.8L248.47,438.97L259.22,438.89L260.3,438.72L269.43,439.31L269.79,439.5L270.33,441.19L273.02,440.98L273.2,441.98L275.17,442.38L275.35,443.13L276.78,443.4L277.32,442.43L278.39,442.21L281.62,443.56L284.66,443.54L286.27,443.58L286.81,442.38L287.71,442.06L293.08,441.54L294.52,441.45L295.05,441.78L314.04,443.68L315.12,443.08L315.3,442.19L318.16,441.53L343.96,443.01L344.68,442.13L344.86,442.08L352.56,442.18L354.17,442.16L362.95,441.8L363.31,441.01L367.07,441.12L369.76,441.54L381.22,440.78L387.85,440.06L403.26,439.86L407.56,439.1L408.81,439.75L409.53,441.95L410.06,441.24L413.83,441.69L432.1,441.08L435.68,441.02L439.62,441.14L442.31,440.72L443.21,440.62L443.56,442.37L455.75,442.36L461.66,440.87L461.84,440.48L462.91,440.12L464.35,441.39L467.39,444.42L467.57,442.99L470.44,442.56L470.97,443.25L472.77,443.02L473.12,442.26L473.3,441.99L473.48,442.54L473.84,442.53L474.2,443.6L475.81,443.34L476.35,443.99L479.39,442.86L480.83,443.69L484.41,444.52L488.35,444.37L489.96,443.45L501.79,442.4L502.5,441.21L506.44,440.5L507.34,441.7L510.21,442.24L524.54,443.75L524.72,443.34L534.39,441.7L535.82,442.57L536.9,444.31L537.08,443.76L539.94,445.38L546.21,445.64L547.29,445.65L547.47,446.52L547.83,445.49L553.2,445.31L561.98,446.38L566.64,445.96L581.69,444.98L583.66,444.51L589.75,443.63L595.84,443.53L596.2,443.96L598.7,444.68L599.06,444.39L606.95,443.89L610.53,442.35L610.71,440.91L626.65,440.36L629.52,438.97L644.92,438.3L652.27,438.7L652.45,438.52L655.85,437.54L657.28,436.21L672.33,435L676.27,434.43L677.89,433.23L679.32,434.26L680.39,434.05L680.93,432.79L693.65,432L709.06,430.86L721.78,430.88L728.58,429.56L730.38,428.77L730.73,428.3L734.85,427.62L735.75,427.47L738.98,427.05L741.3,427.48L745.96,426.17L746.5,425.66L754.56,425.66L767.82,425.48L768,424.65L768.36,423.3L772.48,423.26L777.67,423.95L779.46,424.57L789.85,425.2L792.9,425.06L795.23,424.5L798.09,423.81L800.06,426.28L800.96,426.76L801.14,425.98L802.39,426.3L804.9,426.24L805.44,426.69L805.8,426.95L812.42,427.19L838.04,426.23L841.98,425.16" style="vector-effect: none; fill: none; stroke: rgb(171, 205, 102); stroke-opacity: 1; stroke-width: 2px; opacity: 1;"/></g><g class="points"/><g class="text"/></g><g class="trace scatter trace39a227" style="stroke-miterlimit: 2; opacity: 1;"><g class="fills"/><g class="errorbars"/><g class="lines"><path class="js-line" d="M0,446.13L6.09,445.05L12.54,444.85L12.9,445.6L15.76,446.55L30.81,446.15L58.22,446.33L80.26,447.08L80.79,447.88L83.12,448.48L83.84,449.16L84.2,450.24L85.99,449.86L86.17,450.13L87.06,449.46L87.78,450.25L97.46,449.15L118.59,446.63L126.3,446.96L133.28,446.24L135.79,445.01L135.97,443.87L137.05,444.15L138.84,448.21L144.21,447.67L148.87,445.79L149.05,446.27L151.2,444.36L151.38,445.08L151.92,444.63L152.63,445.48L153.71,445.95L154.42,446.05L166.96,447.22L168.4,448.5L183.45,449.1L195.81,447.94L197.42,447.43L204.76,446.88L207.27,447.68L212.29,448L215.33,447.54L216.23,447.34L218.56,447.12L218.74,448.26L219.09,447.17L220.71,447.43L222.32,447.24L243.64,447.8L248.47,446.74L249.55,447.85L254.21,448.66L258.51,447.91L259.22,447.42L259.94,447.84L267.11,447.39L269.43,446.9L270.33,447.99L273.02,448.12L273.2,448.58L275.17,448.85L275.35,449.12L276.78,449.89L277.32,449.21L280.9,448.62L281.98,449.03L284.66,448.83L285.74,448.39L286.27,447.06L287.71,446.97L293.08,447.49L293.26,446.9L295.05,446.73L301.86,446.71L308.67,447.2L315.12,447.31L315.3,448.64L352.56,449.93L353.1,449.4L354.35,448.81L355.6,449.12L363.84,449.13L364.02,447.92L367.07,449.19L369.76,449.46L384.98,450.14L408.81,450.1L410.06,450.07L411.5,451.06L411.68,451.15L412.21,450.31L412.75,449.34L432.1,449.46L435.68,449.61L439.62,449.65L442.31,449.93L443.21,450.88L443.39,451.54L457,452.2L464.35,452.28L465.06,451.09L467.57,451.57L470.44,452.78L472.23,451.81L472.41,452.42L473.84,453.67L474.2,453.36L474.74,454.14L475.81,453.42L477.78,452.69L478.14,453.5L479.39,453.7L480.83,453.63L481.54,453.49L483.69,454.18L484.95,454.92L488.35,454.37L489.96,453.59L501.79,453.27L501.97,452.53L502.5,453.62L510.21,455.09L519.34,454.68L523.28,453.5L524.54,453.96L524.72,453.71L530.63,453.64L536,453.4L536.9,454.06L537.08,454.01L537.97,454.95L538.15,454.77L538.51,455.29L539.77,455.31L539.94,455.52L546.21,455.8L547.83,453.91L550.69,453.94L568.25,455.55L577.74,455.35L589.75,454.06L596.2,454.13L599.06,454.9L609.63,455.03L622.71,451.76L626.65,452.12L637.22,451.42L640.62,450.15L644.92,449.54L651.73,449.68L652.45,447.84L655.85,446.66L657.28,445.92L672.33,445.92L676.27,446.46L677.89,445.42L680.39,443.22L680.93,442.09L693.65,441.31L705.12,441.66L730.38,440.68L730.73,439.86L738.98,438.4L739.87,438.77L741.48,437.57L745.96,438.03L746.5,436.82L754.56,436.5L754.92,436.39L765.85,436.68L768.18,436.49L768.36,437.26L769.79,438.27L772.48,439.11L777.31,439.11L777.67,438.19L798.27,439.96L799.17,440.51L800.96,440.75L801.14,441.69L802.75,441.52L803.47,440.72L804.72,440.95L804.9,441.49L807.05,441.78L812.42,442.5L829.09,442.49L836.07,442.29L841.98,440.98" style="vector-effect: none; fill: none; stroke: rgb(205, 245, 122); stroke-opacity: 1; stroke-width: 2px; opacity: 1;"/></g><g class="points"/><g class="text"/></g><g class="trace scatter traceac4f39" style="stroke-miterlimit: 2; opacity: 1;"><g class="fills"/><g class="errorbars"/><g class="lines"><path class="js-line" d="M0,446.43L6.09,445.36L12.54,445.16L12.9,445.9L15.76,445.54L79,446.62L80.26,447.48L83.12,448.87L83.84,449.55L84.02,450.01L84.2,449.64L85.99,449.8L86.17,449.45L87.06,449.5L97.46,449.26L104.8,448.23L105.52,447.65L113.04,447.21L126.3,446L133.28,446.09L135.79,445.28L135.97,444.1L137.05,443.75L137.58,444.42L138.48,446.89L138.84,447.74L144.21,447.76L147.08,446.7L148.87,446.08L149.05,445.26L150.48,444.79L151.02,444.57L151.92,444.79L152.63,445.78L152.81,444.94L153.71,445.11L154.42,445.63L158.36,446.51L168.4,448.14L174.85,447.81L183.45,449.27L195.81,448.2L197.42,447.71L204.76,446.83L207.27,446.68L212.29,447.35L215.33,447.47L216.23,448.05L219.09,447.74L220.71,448.33L222.32,447.85L243.64,448.01L259.22,448.57L259.94,447.32L260.84,446.85L264.42,447.11L269.43,447.68L269.79,447.29L270.33,447.97L273.02,447.88L273.2,448.69L275.17,449.11L275.35,449.29L276.78,449.37L277.32,449.82L280.9,449.22L281.98,449.65L284.66,448.53L285.74,448.88L286.27,447.9L287.35,447.09L287.71,447.26L293.26,447.19L295.05,447.02L301.86,447L308.67,447.48L345.39,448.94L350.41,448.62L354.17,448.7L354.35,448.37L355.6,447.44L362.95,447.94L364.02,448.33L367.07,447.68L369.76,447.23L381.22,448.46L409.35,449.51L409.53,450.19L411.68,450.08L412.21,449.36L412.75,449.22L432.1,450.25L433.71,450.45L435.68,449.59L441.06,449.47L442.31,450.12L443.39,451.49L457,452.37L467.57,451.87L470.44,452.32L472.41,452.69L473.12,453.42L473.84,454.13L474.2,454.16L474.74,453.5L475.81,453.84L476.35,453L477.78,453.25L478.14,452.85L478.86,453.67L484.77,454.63L484.95,455.09L489.96,453.84L501.79,453.55L502.5,452.7L506.44,453.87L510.21,454.89L519.34,454.89L523.28,453.71L524.54,454.16L524.72,453.91L530.63,453.84L536.9,454.01L537.08,454.43L538.51,455.7L539.77,455.61L539.94,455.82L546.21,455.66L546.39,454.6L547.47,454.13L547.83,454.25L553.2,454L568.25,455.61L577.74,455.26L581.69,454.4L589.75,454.03L598.7,453.45L599.06,454.24L610.53,454.04L610.71,453.71L626.65,451.88L629.52,452.15L644.92,449.55L651.73,449.66L652.27,449.24L652.45,447.99L657.28,445.68L672.33,444.96L677.89,445.66L679.32,444.47L680.93,442.46L693.65,441.68L709.06,441.81L728.23,441.41L730.73,440.24L734.85,439.4L735.75,439.07L738.98,438.8L739.87,439.16L741.3,438.59L741.48,437.99L745.96,438.44L746.5,437.25L754.56,436.94L754.92,436.83L765.85,437.12L768.18,436.93L768.36,437.69L769.79,438.68L772.48,439.51L777.31,439.51L777.67,438.6L798.27,440.34L799.17,440.89L800.96,441.13L801.14,442.06L802.75,441.9L803.47,441.11L804.72,441.34L804.9,441.88L807.05,442.15L812.42,442.86L829.09,442.85L836.07,442.65L841.98,441.36" style="vector-effect: none; fill: none; stroke: rgb(122, 182, 245); stroke-opacity: 1; stroke-width: 2px; opacity: 1;"/></g><g class="points"/><g class="text"/></g></g></g><g class="xy2" transform="translate(70,70)" clip-path="url(#clipd85b44xy2plot)"><g class="scatterlayer mlayer"><g class="trace scatter trace7aff66" style="stroke-miterlimit: 2; opacity: 1;"><g class="fills"/><g class="errorbars"/><g class="lines"><path class="js-line" d="M61.98,242.49L62.16,242.28L62.34,243.9L62.52,244.03L62.7,245.39L63.78,251.88L63.95,252.71L64.67,253.3L64.85,255.16L65.75,256.84L66.1,256.48L66.28,255.7L67,254.68L67.18,255.4L67.36,255.52L68.08,253.72L68.25,251.38L69.51,248.14L69.69,248.08L71.12,246.03L71.3,246.39L71.48,247.36L73.09,245.01L73.27,244.11L73.63,243.63L73.81,242.37L75.42,235.17L75.6,234.57L76.67,226.4L76.85,224.36L78.64,217.39L78.82,216.73L81.15,207.73L81.33,207.37L82.41,205.99L82.59,205.69L84.2,200.94L84.38,200.82L84.91,198.72L85.27,199.14L85.45,199.62L85.99,199.68L86.17,200.28L86.53,201L86.71,201.3L89.04,208.39L89.21,209.59L90.65,215.41L90.83,215.47L93.33,220.94L93.51,220.34L94.41,219.44L94.59,219.14L95.13,217.39L95.48,218.35L95.66,219.32L96.2,221.24L96.56,220.46L96.74,220.7L97.81,218.42L97.99,218.6L98.17,218.9L98.71,217.81L98.89,218.54L99.07,218.72L99.96,218.23L100.14,217.75L100.86,215.71L101.04,214.57L101.58,212.83L101.75,214.21L101.93,215.89L102.11,216.79L102.83,216.61L103.01,216.73L103.19,217.15L103.37,216.31L103.55,215.95L104.8,217.87L104.98,218.05L105.88,218.78L106.05,218.66L106.23,218.42L106.41,218.23L106.59,219.08L106.77,218.9L106.95,219.02L108.38,211.39L108.56,211.87L108.92,211.57L109.1,210.73L110.17,209.11L110.35,208.87L110.53,208.51L110.89,208.99L111.07,209.89L111.25,209.53L111.43,210.31L111.61,210.67L115.19,230L115.37,238.77L120.56,456L120.74,453.84L125.22,407.61L125.4,406.83L127.55,398.6L127.73,398.6L128.81,397.94L128.98,398.12L129.52,396.92L129.7,395.66L130.06,393.98L130.42,395.54L130.6,395.42L131.31,393.62L131.49,392.78L132.21,390.91L132.39,389.41L138.12,356.39L138.3,354.71L143.5,305.3L143.67,304.69L144.93,297.07L145.11,295.21L150.84,250.3L151.02,249.58L152.45,246.03L152.63,244.95L154.07,241.23L154.24,241.35L154.96,241.41L155.14,241.95L160.51,261.34L160.69,262.79L161.59,267.59L161.77,267.35L161.95,267.59L162.48,269.69L162.84,269.33L163.02,268.79L164.1,267.05L164.28,266.99L164.99,267.59L165.17,267.11L165.35,264.77L167.68,259.72L167.86,259.84L168.04,259.54L168.4,260.2L168.58,261.4L170.37,267.29L170.55,267.41L172.34,273.47L172.52,273.89L174.31,267.29L174.49,266.99L175.92,270.35L176.1,269.69L176.28,269.81L176.46,269.93L176.64,271.13L177.71,265.13L177.89,265.43L178.97,265.25L179.15,265.91L179.68,267.05L179.86,266.75L180.04,265.43L181.65,261.52L181.83,261.71L183.8,255.82L183.98,256.66L184.34,256.36L184.88,257.68L185.06,257.44L185.24,257.2L185.42,257.14L185.59,258.22L187.21,293.11L187.39,293.89L189.18,302.05L189.36,300.97L189.54,300.97L189.72,302.17L190.79,305.72L190.97,305.18L192.4,278.1L192.58,277.62L193.12,276.9L193.3,278.46L194.91,285.42L195.09,285.06L195.45,282.72L195.81,284.28L195.99,284.28L197.06,284.1L197.24,284.64L197.78,283.08L197.96,284.04L198.13,285.72L198.31,287.76L198.67,285.48L198.85,284.22L199.03,286.44L199.75,286.32L199.93,286.08L201.72,280.14L201.9,279.36L202.79,277.8L202.97,278.16L203.51,274.13L203.69,272.33L203.87,272.33L204.05,271.49L204.23,270.83L204.41,267.17L206.02,262.91L206.2,263.33L206.38,263.21L208.17,259.42L208.35,258.4L209.24,254.86L209.6,255.58L209.78,256.18L212.47,267.17L212.65,268.01L215.15,275.39L215.33,275.09L215.51,274.49L216.41,272.39L216.59,272.03L218.92,267.65L219.09,267.77L219.27,267.71L219.63,267.83L219.81,268.85L220.53,270.05L220.71,271.49L222.5,283.14L222.68,283.56L224.47,287.88L224.65,287.76L225.01,286.5L225.19,284.94L226.08,277.8L226.26,275.63L227.87,265.43L228.05,264.23L228.95,258.64L229.13,257.02L230.38,247.96L230.74,248.14L230.92,248.86L231.28,249.88L231.46,248.98L231.64,248.02L232.35,243.81L232.53,242.79L233.96,231.38L234.14,229.7L235.58,224.36L235.76,224.6L236.47,222.2L236.65,222.26L236.83,223.22L237.91,225.92L238.08,225.44L238.98,220.88L239.34,221.54L239.52,221.78L240.05,223.52L240.23,224.24L241.31,221.66L241.49,220.34L242.03,218.11L242.2,215.95L244,202.68L244.18,202.74L244.53,201.72L244.71,201.36L245.07,202.08L245.25,201.12L245.43,200.1L245.61,199.26L246.15,199.92L246.33,200.22L246.5,200.28L246.68,199.74L246.86,199.14L247.4,196.2L247.76,197.46L247.94,198.78L255.28,283.98L255.46,284.4L255.64,284.4L255.82,285.42L256.89,289.32L257.07,289.2L257.25,289.08L257.43,289.44L257.61,289.26L257.79,288.42L262.45,250.6L262.63,249.64L264.06,241.71L264.24,242.37L264.78,243.45L265.31,243.09L265.49,241.83L267.11,236.73L267.29,235.77L268.54,232.22L268.72,232.28L268.9,232.16L270.87,223.82L271.05,222.74L272.3,214.15L272.48,215.53L272.66,215.95L273.02,215.11L273.2,214.09L273.91,210.13L274.09,208.39L276.96,193.2L277.14,192.66L277.68,189.59L277.85,186.05L279.29,175.97L279.47,174.94L280.54,168.22L280.72,167.14L281.62,165.28L281.8,165.34L282.87,169.18L283.05,171.34L285.56,182.99L285.74,183.41L286.27,181.61L286.45,181.73L286.63,182.69L287.35,184.73L287.53,186.17L287.71,186.89L288.07,185.87L288.25,185.03L288.42,183.77L288.96,185.27L289.14,184.91L290.04,182.99L290.22,183.23L290.39,184.01L290.57,185.09L291.29,184.85L291.47,185.45L291.83,187.31L292.19,185.45L292.37,184.67L293.08,180.11L293.44,181.61L293.62,181.73L294.69,178.43L294.87,178.73L295.05,179.09L295.41,179.51L295.59,179.27L295.77,178.07L296.84,177.23L297.02,175.37L297.38,178.25L297.56,179.75L298.1,182.51L298.46,181.73L298.64,181.61L299.71,176.45L299.89,176.51L300.43,175.25L300.61,175.43L300.79,177.05L301.86,183.35L302.04,183.77L302.58,183.89L302.76,182.69L303.83,187.43L304.01,188.03L304.19,188.27L304.37,190.86L305.98,196.68L306.16,195.78L306.34,193.5L307.77,196.62L307.95,195.12L309.74,183.71L309.92,183.95L312.79,194.46L312.97,194.4L314.4,204.97L314.58,210.43L315.65,213.07L315.83,212.95L316.01,212.41L316.55,206.89L316.73,205.21L318.34,196.08L318.52,196.92L318.7,196.5L319.42,194.34L319.6,193.38L319.77,192.84L319.95,187.37L321.75,181.13L321.92,181.49L322.1,181.49L322.64,184.07L322.82,185.33L324.79,197.94L324.97,199.44L327.84,212.53L328.02,211.33L328.19,211.15L328.91,210.79L329.09,212.05L329.63,212.65L329.81,212.29L329.99,211.69L330.17,211.57L330.34,212.35L330.52,212.35L330.7,212.17L331.06,212.77L331.24,213.01L332.67,207.79L332.85,208.27L333.03,209.89L333.39,211.27L333.75,210.37L333.93,210.13L336.97,192.54L337.15,192.84L337.33,193.2L337.87,193.8L338.05,194.64L340.02,185.51L340.2,185.63L340.73,184.07L341.09,184.37L341.27,184.73L341.81,186.11L341.99,185.63L342.17,184.31L342.88,180.17L343.06,178.49L344.5,170.2L344.68,170.26L344.86,170.5L345.21,170.56L345.39,169.72L346.11,165.52L346.29,163.78L347.54,156.63L347.72,156.69L347.9,155.91L349.33,151.41L349.69,152.07L349.87,152.01L350.23,150.87L350.59,152.13L350.77,152.13L351.48,151.89L351.66,152.37L352.92,156.15L353.1,156.45L354.53,166L354.71,176.27L357.4,281.7L357.57,285.42L359.01,306.14L359.19,305.6L359.9,303.73L360.08,293.53L362.59,197.88L362.77,195.12L364.02,176.15L364.56,177.17L364.74,177.29L365.64,178.01L365.82,178.37L366.53,181.61L366.71,182.21L366.89,182.33L367.07,184.79L371.37,213.01L371.55,211.03L371.91,210.19L372.09,208.63L376.56,170.8L376.74,169.66L376.92,169.78L377.1,170.86L378.53,178.91L378.71,178.61L378.89,178.37L379.61,177.47L379.79,177.59L379.97,177.41L380.51,179.15L380.86,178.25L381.04,176.87L381.94,176.99L382.12,177.53L382.65,174.28L382.83,172.78L383.19,171.04L383.37,171.94L383.55,174.46L385.34,199.32L385.52,200.52L386.06,204.25L386.24,206.47L388.92,234.27L389.1,233.13L389.28,230.66L389.82,230.84L390,231.26L390.54,231.26L390.72,232.22L390.9,232.4L391.07,231.8L391.25,231.5L391.97,232.76L392.15,230.48L393.22,228.62L393.4,228.98L393.94,225.8L394.12,223.88L395.02,220.7L395.2,221.06L395.91,220.88L396.09,219.74L396.63,220.4L397.7,215.29L397.88,214.81L398.6,212.83L398.96,213.85L399.14,214.75L399.67,219.56L400.03,217.99L400.21,216.73L401.29,211.57L401.47,212.29L401.64,213.19L401.82,212.83L402,213.19L402.18,214.57L403.08,218.35L403.26,217.45L404.33,214.39L404.51,212.65L407.02,188.93L407.2,187.43L408.99,172.24L409.17,170.92L410.24,168.16L410.42,167.74L411.68,165.22L412.03,165.64L412.21,165.58L412.39,165.1L412.57,166.3L412.75,167.14L413.11,166.36L413.47,169.24L413.65,170.8L414.72,174.58L414.9,173.8L416.16,170.14L416.33,170.86L416.87,171.04L418.84,163L419.02,161.68L420.28,154.41L420.63,154.53L420.81,153.75L422.07,158.49L422.25,157.59L423.14,155.73L423.32,156.03L423.5,156.33L424.57,154.77L424.75,155.07L424.93,155.79L426.01,154.83L426.37,155.31L426.55,153.87L426.9,152.07L427.26,152.85L427.44,152.79L428.16,158.25L428.52,157.89L428.7,156.63L428.87,155.37L429.41,156.93L429.59,157.71L433.89,184.85L434.07,188.15L434.79,191.76L434.97,191.1L435.14,190.62L435.5,188.03L435.86,188.81L436.04,189.66L436.76,193.98L437.12,192.48L437.29,192.36L437.83,189.47L438.01,187.31L438.91,184.73L439.09,183.41L440.16,177.89L440.34,178.19L440.52,178.31L440.7,178.43L440.88,177.89L441.06,176.87L441.95,172.6L442.13,173.2L442.31,173.86L443.74,182.15L444.1,181.91L444.28,181.31L446.61,194.16L446.79,193.98L446.97,193.68L447.51,190.56L447.68,189.53L449.12,183.59L449.3,183.95L449.66,184.61L449.83,183.29L451.09,177.23L451.27,176.93L451.63,178.85L451.98,176.81L452.16,176.93L452.52,176.81L452.7,177.53L453.6,181.37L454.13,180.65L454.31,180.71L455.03,181.85L455.21,182.75L455.39,182.93L455.57,184.73L455.93,184.97L456.1,187.43L456.46,188.09L456.64,189.17L457,189.66L457.18,190.92L458.25,197.76L458.43,197.28L458.61,197.64L458.79,197.82L459.15,197.16L459.33,196.98L459.51,196.8L459.69,197.4L459.87,197.64L461.3,196.14L461.48,195.36L462.2,193.8L462.37,193.38L463.45,191.04L463.63,191.58L464.35,194.28L464.52,193.98L464.7,193.32L465.42,193.86L465.6,194.52L466.67,199.32L466.85,201.54L468.47,210.43L468.82,209.83L469,208.45L472.05,189.41L472.23,185.93L477.96,117.06L478.14,116.28L479.21,112.08L479.39,112.5L479.57,112.92L482.08,123.97L482.26,123.73L482.44,123.79L482.62,123.07L482.8,122.35L483.16,121.51L483.33,122.83L483.51,123.37L484.77,126.55L484.95,126.85L485.31,125.41L485.48,124.33L486.02,122.47L486.2,122.89L486.38,123.67L490.14,157.77L490.32,161.08L491.93,178.55L492.11,178.19L492.65,175.06L493.01,176.15L493.19,177.23L494.62,187.49L494.8,186.89L494.98,186.59L495.52,187.97L495.7,187.37L495.87,186.17L497.31,188.39L497.49,190.62L498.74,198.54L498.92,197.7L501.43,178.49L501.61,176.99L503.22,166.24L503.4,164.68L505.37,154.59L505.55,154.83L505.73,156.15L506.44,157.77L506.8,157.29L506.98,156.75L508.41,148.95L508.59,149.31L508.77,149.79L508.95,149.07L509.13,147.93L509.49,146.3L509.85,147.09L510.03,149.07L510.21,149.07L510.39,150.39L510.74,151.53L510.92,150.57L511.1,149.31L511.28,149.43L511.46,148.47L512,146.43L512.18,149.31L513.79,159.57L513.97,158.97L514.15,158.91L514.69,159.57L514.86,159.69L515.04,160.77L515.4,159.03L515.58,159.09L515.76,158.49L515.94,158.79L516.12,162.04L517.19,177.35L517.37,176.93L517.55,174.34L517.73,173.26L518.27,174.28L518.45,174.58L518.63,174.7L518.81,174.1L518.98,173.62L520.42,178.13L520.6,179.57L521.31,183.47L521.49,180.53L522.57,166.3L522.75,166.36L522.93,165.46L523.28,166.06L523.46,166.9L523.64,166.36L524.18,166.66L524.36,166.6L524.54,166.48L524.72,167.56L525.25,169.84L525.43,169.36L525.61,168.04L526.51,163.48L526.69,163.54L526.87,163.84L528.48,172.78L528.66,171.94L528.84,170.74L530.09,168.58L530.27,167.32L530.63,165.22L530.99,165.88L531.17,166.54L531.88,164.92L532.06,164.5L532.78,162.34L532.96,161.68L535.47,154.35L535.65,154.59L536.18,153.45L536.36,152.55L538.51,140.6L538.69,139.76L540.48,129.25L540.66,127.75L541.38,122.11L541.74,123.79L541.92,124.39L542.09,124.45L542.27,123.73L542.45,122.53L544.96,105.72L545.14,104.88L545.86,102.23L546.04,102.47L546.21,102.89L546.75,105.9L546.93,103.86L547.11,103.8L547.29,103.13L547.47,103.86L547.65,106.44L548.9,116.88L549.08,116.58L550.69,123.43L550.87,125.53L551.59,127.87L551.77,126.73L553.56,114.36L553.74,115.2L553.92,115.32L554.99,117.18L555.17,117.12L555.35,116.28L555.53,117.06L555.71,118.75L557.14,123.73L557.32,125.29L558.93,131.23L559.11,130.15L560.01,125.65L560.19,123.85L562.7,102.71L562.88,103.19L564.49,99.23L564.67,99.77L567.71,113.82L567.89,115.02L569.15,120.61L569.32,120.79L569.5,120.43L569.68,120.85L569.86,122.77L572.01,137.18L572.55,136.76L572.73,136.52L573.98,141.14L574.16,140.54L574.34,139.28L575.95,133.58L576.13,135.02L577.21,134.3L577.39,134.18L577.92,134.72L578.1,135.26L579.18,130.33L579.36,129.07L579.54,128.77L579.71,130.27L580.97,137.42L581.33,137.06L581.51,134.96L582.22,131.65L582.4,132.8L582.58,132.5L583.12,130.51L583.3,131.59L583.48,131.95L584.73,137.84L584.91,139.64L585.81,144.2L585.98,143L586.16,143.54L586.34,143.3L586.52,144.5L586.7,144.62L586.88,145.76L587.96,149.49L588.13,150.87L588.85,155.37L589.03,155.31L589.21,155.49L590.46,151.17L590.64,150.27L591.54,148.95L591.72,149.67L592.97,154.71L593.15,154.65L594.76,147.93L594.94,147.69L595.3,144.56L595.66,145.64L595.84,146.91L596.55,142.52L596.73,140.3L598.88,120.31L599.06,118.93L599.42,118.81L599.6,117.79L600.32,113.82L600.5,112.86L601.57,102.05L601.93,102.17L602.11,103.68L602.65,112.86L603,112.08L603.18,109.86L603.72,108.6L604.08,108.9L604.26,108.36L605.51,106.14L605.69,106.14L606.41,105.72L606.59,106.08L606.77,106.44L607.3,109.14L607.48,108.18L607.66,102.35L608.2,98.39L608.56,98.81L608.74,98.81L609.09,97.97L609.27,96.47L609.99,92.27L610.17,96.83L611.24,99.77L611.42,100.55L612.14,102.23L612.32,102.11L612.5,100.67L613.39,95.69L613.75,96.11L613.93,96.41L614.83,98.57L615.01,99.71L615.19,100.73L615.36,100.13L615.54,94.85L615.72,94.25L615.9,95.63L616.08,96.23L617.16,97.61L617.34,97.49L617.51,96.71L617.87,97.79L618.05,98.51L618.77,104.16L619.13,103.01L619.31,103.19L620.02,100.73L620.38,101.57L620.56,101.93L620.92,102.41L621.1,101.75L621.28,99.89L622.35,90.71L622.71,91.25L622.89,91.31L623.25,90.23L623.43,91.49L623.61,91.31L623.78,91.07L624.14,90.53L624.32,90.77L624.5,91.43L626.47,101.33L626.65,103.74L628.44,122.29L628.62,122.53L629.16,120.49L629.34,121.39L629.52,122.05L630.41,123.19L630.59,122.59L631.85,116.82L632.03,115.32L632.92,109.38L633.1,106.26L633.28,106.32L633.46,107.76L633.64,107.94L634,107.28L634.18,107.22L634.89,104.04L635.07,102.89L635.61,100.19L635.97,100.73L636.15,101.45L637.58,107.76L637.76,107.64L637.94,107.4L638.12,107.7L638.3,108.18L638.47,109.2L638.65,108.54L638.83,106.68L639.55,107.7L639.73,107.88L640.27,109.62L640.45,111.24L640.8,112.92L641.16,111.9L641.34,111.18L642.24,109.68L642.42,109.5L643.13,107.4L643.31,108.84L643.67,110.94L643.85,112.2L645.46,121.69L645.64,105L645.82,87.4L646.36,106.38L646.54,108.6L647.97,123.61L648.15,126.13L650.84,144.02L651.01,162.4L651.19,181.43L651.73,167.98L651.91,167.68L652.27,165.34L652.63,166.66L652.81,167.26L653.16,166.18L653.34,164.26L654.24,155.73L654.42,153.57L656.93,143.66L657.11,142.94L657.64,141.5L657.82,142.64L658,142.88L658.54,141.62L658.72,141.92L658.9,142.7L659.26,143.78L659.43,144.68L660.51,148.83L660.69,148.71L660.87,148.65L661.23,148.65L661.41,146.73L662.48,141.62L662.66,141.86L662.84,141.68L663.02,141.2L663.2,138.5L665.53,123.97L665.7,123.01L665.88,122.47L666.06,123.43L666.24,127.03L667.85,140.12L668.03,139.34L668.93,137.66L669.11,138.92L670,139.46L670.18,139.16L670.36,138.8L670.54,138.5L670.9,138.8L671.08,136.88L671.8,120.25L671.97,115.5L673.77,96.47L673.95,96.47L674.3,95.33L674.48,93.23L675.02,90.11L675.2,91.31L675.38,91.91L676.1,90.77L676.27,91.43L676.45,93.17L677.35,104.52L677.53,108.24L681.65,153.87L681.83,155.49L682.54,157.47L682.72,156.69L682.9,155.43L683.44,153.33L683.62,153.75L683.8,154.59L683.98,155.55L684.34,154.59L684.52,153.51L686.13,143.66L686.31,143.78L686.49,143.66L687.92,141.08L688.1,140.9L690.61,129.73L690.79,129.73L691.14,129.49L691.32,128.77L691.5,142.16L692.04,136.64L692.22,134.18L693.47,121.93L693.65,121.81L696.52,106.08L696.7,106.08L697.06,91.85L697.41,94.25L697.59,95.69L698.85,102.05L699.03,101.45L700.46,106.2L700.64,107.4L701.89,112.62L702.07,113.28L702.61,121.57L702.97,120.79L703.15,121.15L703.86,121.51L704.04,121.21L704.22,121.03L704.4,123.85L707.09,145.16L707.27,145.46L707.45,146L707.62,142.1L707.98,139.88L708.34,141.74L708.52,141.26L708.88,141.98L709.06,143.06L709.6,146.06L710.13,145.88L710.31,145.76L712.1,137.48L712.28,137.66L712.46,138.68L713.36,144.74L713.54,144.62L713.72,142.46L715.51,151.11L715.69,153.93L717.3,166.84L717.48,168.82L717.84,169.96L718.02,169.36L718.19,168.46L718.91,172.96L719.09,176.57L719.45,179.03L719.81,177.05L719.99,176.99L720.88,173.56L721.06,171.22L721.6,167.32L721.96,168.94L722.14,169.84L722.31,169.48L722.49,171.22L722.67,172.06L722.85,170.68L723.03,169.9L724.46,163.36L724.82,163.66L725,165.1L725.54,165.4L725.9,164.8L726.08,164.74L726.97,165.64L727.15,165.52L727.33,163.96L731.63,141.68L731.81,141.26L732.17,139.76L732.35,137L734.14,122.83L734.32,122.77L736.65,109.8L736.83,107.58L738.62,93.29L738.8,92.81L738.98,92.99L739.15,92.51L739.33,91.55L741.13,85.42L741.3,85.36L743.45,96.77L743.63,96.35L743.81,96.41L744.35,96.77L744.53,98.39L745.78,105.42L745.96,106.26L746.32,104.28L746.5,103.38L746.86,102.59L747.04,101.99L747.4,100.73L747.75,102.05L747.93,102.11L748.29,101.57L748.47,102.29L748.65,102.89L748.83,102.89L749.01,104.64L750.8,111.06L750.98,111.12L751.87,110.64L752.05,109.74L754.02,96.17L754.2,96.47L754.74,96.47L754.92,95.03L756.89,87.22L757.07,88.3L757.25,88.3L757.43,87.04L758.14,85.24L758.5,85.78L758.68,87.1L759.04,87.34L759.22,86.38L759.4,86.08L759.58,88.78L759.94,89.39L760.29,88.6L760.47,88.54L761.91,88.18L762.09,87.7L762.26,87.7L762.44,86.44L763.34,87.28L763.52,87.94L764.77,93.23L764.95,90.29L765.31,89.33L765.49,90.41L765.67,90.83L766.38,89.63L766.56,90.23L766.74,91.01L767.1,90.71L767.28,90.11L768.18,93.29L768.36,94.01L769.61,97.85L769.79,97.31L770.86,95.39L771.04,96.17L773.19,105.6L773.37,104.88L773.55,104.34L773.91,105.18L774.09,105.96L776.06,113.64L776.24,112.92L777.85,105.42L778.03,105.78L778.39,106.44L778.57,105.84L778.75,105.48L778.92,105.18L779.1,102.47L781.07,88.36L781.43,90.17L781.61,91.73L781.97,92.93L782.33,92.51L782.51,91.85L782.87,91.13L783.05,91.79L783.22,92.57L783.4,92.03L783.76,92.87L783.94,94.13L786.99,119.11L787.17,120.01L788.24,123.79L788.42,123.31L788.6,122.35L789.85,114.42L790.21,114.78L790.39,115.5L790.57,115.56L790.75,114.36L792.9,97.91L793.08,99.59L793.26,100.13L794.33,106.32L794.51,105.72L794.69,104.1L795.23,102.35L795.41,99.89L796.48,89.87L796.66,90.29L796.84,91.31L797.38,92.57L797.56,91.49L797.73,89.87L798.27,83.98L798.45,80.74L800.06,64.41L800.24,62.49L800.78,60.15L800.96,60.63L801.14,61.41L801.5,62.25L801.68,61.11L801.86,60.69L804.9,31.45L805.44,32.77L805.62,32.35L806.87,24L807.23,25.44L807.41,27.24L807.95,30.96L808.13,34.45L812.07,102.65L812.25,104.7L813.32,115.74L813.5,115.2L813.68,115.44L814.93,126.31L815.29,124.93L815.47,124.57L816.01,122.71L816.19,121.87L817.08,119.11L817.26,119.23L818.87,105.24L819.05,103.01L824.79,46.4L824.97,45.55L825.32,45.37L825.5,45.74L825.68,45.86L825.86,46.04L826.04,45.49L826.22,45.01L826.76,46.22L826.94,46.16L827.11,45.07L827.83,47.36L828.01,47.3L828.19,45.74L828.55,42.97L828.91,44.53L829.09,46.1L830.16,51.8L830.34,51.08L831.06,49.46L831.24,48.92L831.41,48.32L831.77,48.5L831.95,51.26L833.03,60.93L833.21,62.13L834.28,69.09L834.46,69.15L835,70.35L835.18,70.83L837.15,74.19L837.33,71.43L838.4,61.59L838.58,61.77L838.94,59.84L839.3,62.07L839.48,62.61L840.19,60.45L840.37,61.11L840.55,63.45L843.06,80.02L843.24,80.44L843.42,79.84L843.78,80.98L843.95,82.36L844.31,85.12L844.85,84.03L845.03,84.62L845.75,88.53L845.93,87.09L846.1,86.62L846.46,86.31L846.82,88.57L847,90.19" style="vector-effect: none; fill: none; stroke: rgb(0, 0, 0); stroke-opacity: 1; stroke-width: 3px; opacity: 1;"/></g><g class="points"/><g class="text"/></g></g></g></g><g class="zerolinelayer-above"/><path class="xlines-above crisp" d="M0,0" style="fill: none;"/><path class="ylines-above crisp" d="M0,0" style="fill: none;"/><g class="overlines-above"><path class="xy2-x crisp" d="M0,0" style="fill: none;"/><path class="xy2-y crisp" d="M0,0" style="fill: none;"/></g><g class="xaxislayer-above"><g class="xtick"><text text-anchor="middle" x="0" y="563" transform="translate(197.37,0)" style="font-family: 'Open Sans', verdana, arial, sans-serif; font-size: 12px; fill: rgb(42, 63, 95); fill-opacity: 1; white-space: pre;">2014</text></g><g class="xtick"><text text-anchor="middle" x="0" y="563" style="font-family: 'Open Sans', verdana, arial, sans-serif; font-size: 12px; fill: rgb(42, 63, 95); fill-opacity: 1; white-space: pre;" transform="translate(328.15,0)">2016</text></g><g class="xtick"><text text-anchor="middle" x="0" y="563" style="font-family: 'Open Sans', verdana, arial, sans-serif; font-size: 12px; fill: rgb(42, 63, 95); fill-opacity: 1; white-space: pre;" transform="translate(459.1,0)">2018</text></g><g class="xtick"><text text-anchor="middle" x="0" y="563" style="font-family: 'Open Sans', verdana, arial, sans-serif; font-size: 12px; fill: rgb(42, 63, 95); fill-opacity: 1; white-space: pre;" transform="translate(589.88,0)">2020</text></g><g class="xtick"><text text-anchor="middle" x="0" y="563" style="font-family: 'Open Sans', verdana, arial, sans-serif; font-size: 12px; fill: rgb(42, 63, 95); fill-opacity: 1; white-space: pre;" transform="translate(720.84,0)">2022</text></g><g class="xtick"><text text-anchor="middle" x="0" y="563" style="font-family: 'Open Sans', verdana, arial, sans-serif; font-size: 12px; fill: rgb(42, 63, 95); fill-opacity: 1; white-space: pre;" transform="translate(851.61,0)">2024</text></g></g><g class="yaxislayer-above"><g class="ytick"><text text-anchor="end" x="69" y="4.199999999999999" transform="translate(0,539.39)" style="font-family: 'Open Sans', verdana, arial, sans-serif; font-size: 12px; fill: rgb(42, 63, 95); fill-opacity: 1; white-space: pre;">0</text></g><g class="ytick"><text text-anchor="end" x="69" y="4.199999999999999" style="font-family: 'Open Sans', verdana, arial, sans-serif; font-size: 12px; fill: rgb(42, 63, 95); fill-opacity: 1; white-space: pre;" transform="translate(0,471.48)">1</text></g><g class="ytick"><text text-anchor="end" x="69" y="4.199999999999999" style="font-family: 'Open Sans', verdana, arial, sans-serif; font-size: 12px; fill: rgb(42, 63, 95); fill-opacity: 1; white-space: pre;" transform="translate(0,403.57)">2</text></g><g class="ytick"><text text-anchor="end" x="69" y="4.199999999999999" style="font-family: 'Open Sans', verdana, arial, sans-serif; font-size: 12px; fill: rgb(42, 63, 95); fill-opacity: 1; white-space: pre;" transform="translate(0,335.66)">3</text></g><g class="ytick"><text text-anchor="end" x="69" y="4.199999999999999" style="font-family: 'Open Sans', verdana, arial, sans-serif; font-size: 12px; fill: rgb(42, 63, 95); fill-opacity: 1; white-space: pre;" transform="translate(0,267.75)">4</text></g><g class="ytick"><text text-anchor="end" x="69" y="4.199999999999999" style="font-family: 'Open Sans', verdana, arial, sans-serif; font-size: 12px; fill: rgb(42, 63, 95); fill-opacity: 1; white-space: pre;" transform="translate(0,199.84)">5</text></g><g class="ytick"><text text-anchor="end" x="69" y="4.199999999999999" style="font-family: 'Open Sans', verdana, arial, sans-serif; font-size: 12px; fill: rgb(42, 63, 95); fill-opacity: 1; white-space: pre;" transform="translate(0,131.93)">6</text></g></g><g class="overaxes-above"><g class="xy2-x"/><g class="xy2-y"><g class="y2tick"><text text-anchor="start" x="918" y="4.199999999999999" transform="translate(0,545.0899999999999)" style="font-family: 'Open Sans', verdana, arial, sans-serif; font-size: 12px; fill: rgb(42, 63, 95); fill-opacity: 1; white-space: pre;">0</text></g><g class="y2tick"><text text-anchor="start" x="918" y="4.199999999999999" style="font-family: 'Open Sans', verdana, arial, sans-serif; font-size: 12px; fill: rgb(42, 63, 95); fill-opacity: 1; white-space: pre;" transform="translate(0,455.03)">50</text></g><g class="y2tick"><text text-anchor="start" x="918" y="4.199999999999999" style="font-family: 'Open Sans', verdana, arial, sans-serif; font-size: 12px; fill: rgb(42, 63, 95); fill-opacity: 1; white-space: pre;" transform="translate(0,364.97)">100</text></g><g class="y2tick"><text text-anchor="start" x="918" y="4.199999999999999" style="font-family: 'Open Sans', verdana, arial, sans-serif; font-size: 12px; fill: rgb(42, 63, 95); fill-opacity: 1; white-space: pre;" transform="translate(0,274.90999999999997)">150</text></g><g class="y2tick"><text text-anchor="start" x="918" y="4.199999999999999" style="font-family: 'Open Sans', verdana, arial, sans-serif; font-size: 12px; fill: rgb(42, 63, 95); fill-opacity: 1; white-space: pre;" transform="translate(0,184.84)">200</text></g><g class="y2tick"><text text-anchor="start" x="918" y="4.199999999999999" style="font-family: 'Open Sans', verdana, arial, sans-serif; font-size: 12px; fill: rgb(42, 63, 95); fill-opacity: 1; white-space: pre;" transform="translate(0,94.78)">250</text></g></g></g></g><g class="subplot xy2"/></g><g class="polarlayer"/><g class="smithlayer"/><g class="ternarylayer"/><g class="geolayer"/><g class="funnelarealayer"/><g class="pielayer"/><g class="iciclelayer"/><g class="treemaplayer"/><g class="sunburstlayer"/><g class="glimages"/><defs id="topdefs-d85b44"><g class="clips"/><clipPath id="legendd85b44"><rect width="203" height="190" x="0" y="0"/></clipPath></defs><g class="layer-above"><g class="imagelayer"/><g class="shapelayer"><g class="shape-group" data-index="0" clip-path="url(#clipd85b44x)"><path data-index="0" fill-rule="evenodd" d="M187.7,550L187.7,70" style="opacity: 1; stroke: rgb(0, 0, 0); stroke-opacity: 1; fill: rgb(0, 0, 0); fill-opacity: 0; stroke-dasharray: 9px, 9px; stroke-width: 2px;"/></g><g class="shape-group" data-index="1" clip-path="url(#clipd85b44x)"><path data-index="1" fill-rule="evenodd" d="M717.97,550L717.97,70" style="opacity: 1; stroke: rgb(0, 0, 0); stroke-opacity: 1; fill: rgb(0, 0, 0); fill-opacity: 0; stroke-dasharray: 9px, 9px; stroke-width: 2px;"/></g></g></g><g class="infolayer"><g class="legend" pointer-events="all" transform="translate(984.7600000000001,70)"><rect class="bg" shape-rendering="crispEdges" style="stroke: rgb(68, 68, 68); stroke-opacity: 1; fill: rgb(0, 0, 0); fill-opacity: 0; stroke-width: 0px;" width="203" height="190" x="0" y="0"/><g class="scrollbox" transform="" clip-path="url(#legendd85b44)"><g class="groups"><g class="traces" transform="translate(0,14.950000000000001)" style="opacity: 1;"><text class="legendtext" text-anchor="start" x="40" y="5.07" style="font-family: 'Open Sans', verdana, arial, sans-serif; font-size: 13px; fill: rgb(42, 63, 95); fill-opacity: 1; white-space: pre;">G1: Urban Core</text><g class="layers" style="opacity: 1;"><g class="legendfill"/><g class="legendlines"><path class="js-line" d="M5,0h30" style="fill: none; stroke: rgb(255, 0, 0); stroke-opacity: 1; stroke-width: 2px;"/></g><g class="legendsymbols"><g class="legendpoints"/></g></g><rect class="legendtoggle" x="0" y="-9.950000000000001" width="197.15625" height="19.900000000000002" style="fill: rgb(0, 0, 0); fill-opacity: 0;"/></g><g class="traces" transform="translate(0,34.85)" style="opacity: 1;"><text class="legendtext" text-anchor="start" x="40" y="5.07" style="font-family: 'Open Sans', verdana, arial, sans-serif; font-size: 13px; fill: rgb(42, 63, 95); fill-opacity: 1; white-space: pre;">G2: Dense Urban</text><g class="layers" style="opacity: 1;"><g class="legendfill"/><g class="legendlines"><path class="js-line" d="M5,0h30" style="fill: none; stroke: rgb(115, 38, 0); stroke-opacity: 1; stroke-width: 2px;"/></g><g class="legendsymbols"><g class="legendpoints"/></g></g><rect class="legendtoggle" x="0" y="-9.950000000000001" width="197.15625" height="19.900000000000002" style="fill: rgb(0, 0, 0); fill-opacity: 0;"/></g><g class="traces" transform="translate(0,54.75000000000001)" style="opacity: 1;"><text class="legendtext" text-anchor="start" x="40" y="5.07" style="font-family: 'Open Sans', verdana, arial, sans-serif; font-size: 13px; fill: rgb(42, 63, 95); fill-opacity: 1; white-space: pre;">G3: Core &amp; Inner</text><g class="layers" style="opacity: 1;"><g class="legendfill"/><g class="legendlines"><path class="js-line" d="M5,0h30" style="fill: none; stroke: rgb(168, 112, 0); stroke-opacity: 1; stroke-width: 2px;"/></g><g class="legendsymbols"><g class="legendpoints"/></g></g><rect class="legendtoggle" x="0" y="-9.950000000000001" width="197.15625" height="19.900000000000002" style="fill: rgb(0, 0, 0); fill-opacity: 0;"/></g><g class="traces" transform="translate(0,74.65)" style="opacity: 1;"><text class="legendtext" text-anchor="start" x="40" y="5.07" style="font-family: 'Open Sans', verdana, arial, sans-serif; font-size: 13px; fill: rgb(42, 63, 95); fill-opacity: 1; white-space: pre;">G4: Urban Fringe</text><g class="layers" style="opacity: 1;"><g class="legendfill"/><g class="legendlines"><path class="js-line" d="M5,0h30" style="fill: none; stroke: rgb(255, 255, 0); stroke-opacity: 1; stroke-width: 2px;"/></g><g class="legendsymbols"><g class="legendpoints"/></g></g><rect class="legendtoggle" x="0" y="-9.950000000000001" width="197.15625" height="19.900000000000002" style="fill: rgb(0, 0, 0); fill-opacity: 0;"/></g><g class="traces" transform="translate(0,94.55000000000001)" style="opacity: 1;"><text class="legendtext" text-anchor="start" x="40" y="5.07" style="font-family: 'Open Sans', verdana, arial, sans-serif; font-size: 13px; fill: rgb(42, 63, 95); fill-opacity: 1; white-space: pre;">G5: Built-Up / Rural Mix</text><g class="layers" style="opacity: 1;"><g class="legendfill"/><g class="legendlines"><path class="js-line" d="M5,0h30" style="fill: none; stroke: rgb(55, 86, 35); stroke-opacity: 1; stroke-width: 2px;"/></g><g class="legendsymbols"><g class="legendpoints"/></g></g><rect class="legendtoggle" x="0" y="-9.950000000000001" width="197.15625" height="19.900000000000002" style="fill: rgb(0, 0, 0); fill-opacity: 0;"/></g><g class="traces" transform="translate(0,114.45000000000002)" style="opacity: 1;"><text class="legendtext" text-anchor="start" x="40" y="5.07" style="font-family: 'Open Sans', verdana, arial, sans-serif; font-size: 13px; fill: rgb(42, 63, 95); fill-opacity: 1; white-space: pre;">G6: Low–Mid Rural</text><g class="layers" style="opacity: 1;"><g class="legendfill"/><g class="legendlines"><path class="js-line" d="M5,0h30" style="fill: none; stroke: rgb(171, 205, 102); stroke-opacity: 1; stroke-width: 2px;"/></g><g class="legendsymbols"><g class="legendpoints"/></g></g><rect class="legendtoggle" x="0" y="-9.950000000000001" width="197.15625" height="19.900000000000002" style="fill: rgb(0, 0, 0); fill-opacity: 0;"/></g><g class="traces" transform="translate(0,134.35000000000002)" style="opacity: 1;"><text class="legendtext" text-anchor="start" x="40" y="5.07" style="font-family: 'Open Sans', verdana, arial, sans-serif; font-size: 13px; fill: rgb(42, 63, 95); fill-opacity: 1; white-space: pre;">G7: Rural Settlements</text><g class="layers" style="opacity: 1;"><g class="legendfill"/><g class="legendlines"><path class="js-line" d="M5,0h30" style="fill: none; stroke: rgb(205, 245, 122); stroke-opacity: 1; stroke-width: 2px;"/></g><g class="legendsymbols"><g class="legendpoints"/></g></g><rect class="legendtoggle" x="0" y="-9.950000000000001" width="197.15625" height="19.900000000000002" style="fill: rgb(0, 0, 0); fill-opacity: 0;"/></g><g class="traces" transform="translate(0,154.25)" style="opacity: 1;"><text class="legendtext" text-anchor="start" x="40" y="5.07" style="font-family: 'Open Sans', verdana, arial, sans-serif; font-size: 13px; fill: rgb(42, 63, 95); fill-opacity: 1; white-space: pre;">G8: All Land</text><g class="layers" style="opacity: 1;"><g class="legendfill"/><g class="legendlines"><path class="js-line" d="M5,0h30" style="fill: none; stroke: rgb(122, 182, 245); stroke-opacity: 1; stroke-width: 2px;"/></g><g class="legendsymbols"><g class="legendpoints"/></g></g><rect class="legendtoggle" x="0" y="-9.950000000000001" width="197.15625" height="19.900000000000002" style="fill: rgb(0, 0, 0); fill-opacity: 0;"/></g><g class="traces" transform="translate(0,174.15)" style="opacity: 1;"><text class="legendtext" text-anchor="start" x="40" y="5.07" style="font-family: 'Open Sans', verdana, arial, sans-serif; font-size: 13px; fill: rgb(42, 63, 95); fill-opacity: 1; white-space: pre;">NGCP load</text><g class="layers" style="opacity: 1;"><g class="legendfill"/><g class="legendlines"><path class="js-line" d="M5,0h30" style="fill: none; stroke: rgb(0, 0, 0); stroke-opacity: 1; stroke-width: 3px;"/></g><g class="legendsymbols"><g class="legendpoints"/></g></g><rect class="legendtoggle" x="0" y="-9.950000000000001" width="197.15625" height="19.900000000000002" style="fill: rgb(0, 0, 0); fill-opacity: 0;"/></g></g></g><rect class="scrollbar" rx="20" ry="3" width="0" height="0" style="fill: rgb(128, 139, 164); fill-opacity: 1;" x="0" y="0"/></g><g class="g-gtitle"><text class="gtitle" x="60" y="35" text-anchor="start" dy="0em" style="opacity: 1; font-family: 'Open Sans', verdana, arial, sans-serif; font-size: 17px; fill: rgb(42, 63, 95); fill-opacity: 1; white-space: pre;">GHSL-stratified DNB-BRDF and NGCP load, τ = 90%</text></g><g class="g-xtitle"><text class="xtitle" x="493.5" y="590.3" text-anchor="middle" style="opacity: 1; font-family: 'Open Sans', verdana, arial, sans-serif; font-size: 14px; fill: rgb(42, 63, 95); fill-opacity: 1; white-space: pre;">Date</text></g><g class="g-ytitle"><text class="ytitle" transform="rotate(-90,41.959375,310)" x="41.959375" y="310" text-anchor="middle" style="opacity: 1; font-family: 'Open Sans', verdana, arial, sans-serif; font-size: 14px; fill: rgb(42, 63, 95); fill-opacity: 1; white-space: pre;">Radiance (nW·cm⁻²·sr⁻¹)</text></g><g class="g-y2title"><text class="y2title" transform="rotate(-90,965.190625,310)" x="965.190625" y="310" text-anchor="middle" style="opacity: 1; font-family: 'Open Sans', verdana, arial, sans-serif; font-size: 14px; fill: rgb(42, 63, 95); fill-opacity: 1; white-space: pre;">Load (MW)</text></g><g class="annotation" data-index="0" style="opacity: 1;"><g class="annotation-text-g" transform="rotate(0,213.7,61.29999999999998)"><g class="cursor-pointer" transform="translate(188,51)"><rect class="bg" x="0.5" y="0.5" width="51" height="20" style="stroke-width: 1px; stroke: rgb(0, 0, 0); stroke-opacity: 1; fill: rgb(255, 255, 255); fill-opacity: 1;"/><text class="annotation-text" text-anchor="middle" x="26.03125" y="16" style="font-family: 'Open Sans', verdana, arial, sans-serif; font-size: 14px; fill: rgb(0, 0, 0); fill-opacity: 1; white-space: pre;">Haiyan</text></g></g></g><g class="annotation" data-index="1" style="opacity: 1;"><g class="annotation-text-g" transform="rotate(0,730.97,61.29999999999998)"><g class="cursor-pointer" transform="translate(718,51)"><rect class="bg" x="0.5" y="0.5" width="25" height="20" style="stroke-width: 1px; stroke: rgb(0, 0, 0); stroke-opacity: 1; fill: rgb(255, 255, 255); fill-opacity: 1;"/><text class="annotation-text" text-anchor="middle" x="12.859375" y="16" style="font-family: 'Open Sans', verdana, arial, sans-serif; font-size: 14px; fill: rgb(0, 0, 0); fill-opacity: 1; white-space: pre;">Rai</text></g></g></g></g></svg>