<svg class="main-svg" xmlns="http://www.w3.org/2000/svg" xmlns:xlink="http://www.w3.org/1999/xlink" width="3600" height="1800" style="" viewBox="0 0 1200 600"><rect x="0" y="0" width="1200" height="600" style="fill: rgb(0, 0, 0); fill-opacity: 0;"/><defs id="defs-3a7d98"><g class="clips"><clipPath id="clip3a7d98xyplot" class="plotclip"><rect width="850" height="480"/></clipPath><clipPath class="axesclip" id="clip3a7d98x"><rect x="70" y="0" width="850" height="600"/></clipPath><clipPath class="axesclip" id="clip3a7d98y"><rect x="0" y="50" width="1200" height="480"/></clipPath><clipPath class="axesclip" id="clip3a7d98xy"><rect x="70" y="50" width="850" height="480"/></clipPath></g><g class="gradients"/><g class="patterns"/></defs><g class="bglayer"><rect class="bg" x="70" y="50" width="850" height="480" style="fill: rgb(255, 255, 255); fill-opacity: 1; stroke-width: 0;"/></g><g class="layer-below"><g class="imagelayer"/><g class="shapelayer"/></g><g class="cartesianlayer"><g class="subplot xy"><g class="layer-subplot"><g class="shapelayer"/><g class="imagelayer"/></g><g class="minor-gridlayer"><g class="x"/><g class="y"/></g><g class="gridlayer"><g class="x"><path class="xgrid crisp" transform="translate(155,0)" d="M0,50v480" style="stroke: rgb(235, 240, 248); stroke-opacity: 1; stroke-width: 1px;"/><path class="xgrid crisp" transform="translate(240,0)" d="M0,50v480" style="stroke: rgb(235, 240, 248); stroke-opacity: 1; stroke-width: 1px;"/><path class="xgrid crisp" transform="translate(325,0)" d="M0,50v480" style="stroke: rgb(235, 240, 248); stroke-opacity: 1; stroke-width: 1px;"/><path class="xgrid crisp" transform="translate(410,0)" d="M0,50v480" style="stroke: rgb(235, 240, 248); stroke-opacity: 1; stroke-width: 1px;"/><path class="xgrid crisp" transform="translate(495,0)" d="M0,50v480" style="stroke: rgb(235, 240, 248); stroke-opacity: 1; stroke-width: 1px;"/><path class="xgrid crisp" transform="translate(580,0)" d="M0,50v480" style="stroke: rgb(235, 240, 248); stroke-opacity: 1; stroke-width: 1px;"/><path class="xgrid crisp" transform="translate(665,0)" d="M0,50v480" style="stroke: rgb(235, 240, 248); stroke-opacity: 1; stroke-width: 1px;"/><path class="xgrid crisp" transform="translate(750,0)" d="M0,50v480" style="stroke: rgb(235, 240, 248); stroke-opacity: 1; stroke-width: 1px;"/><path class="xgrid crisp" transform="translate(835,0)" d="M0,50v480" style="stroke: rgb(235, 240, 248); stroke-opacity: 1; stroke-width: 1px;"/></g><g class="y"><path class="ygrid crisp" transform="translate(0,438.57)" d="M70,0h850" style="stroke: rgb(235, 240, 248); stroke-opacity: 1; stroke-width: 1px;"/><path class="ygrid crisp" transform="translate(0,347.14)" d="M70,0h850" style="stroke: rgb(235, 240, 248); stroke-opacity: 1; stroke-width: 1px;"/><path class="ygrid crisp" transform="translate(0,255.71)" d="M70,0h850" style="stroke: rgb(235, 240, 248); stroke-opacity: 1; stroke-width: 1px;"/><path class="ygrid crisp" transform="translate(0,164.29000000000002)" d="M70,0h850" style="stroke: rgb(235, 240, 248); stroke-opacity: 1; stroke-width: 1px;"/><path class="ygrid crisp" transform="translate(0,72.86)" d="M70,0h850" style="stroke: rgb(235, 240, 248); stroke-opacity: 1; stroke-width: 1px;"/></g></g><g class="zerolinelayer"><path class="xzl zl crisp" transform="translate(70,0)" d="M0,50v480" style="stroke: rgb(235, 240, 248); stroke-opacity: 1; stroke-width: 2px;"/><path class="yzl zl crisp" transform="translate(0,530)" d="M70,0h850" style="stroke: rgb(235, 240, 248); stroke-opacity: 1; stroke-width: 2px;"/></g><g class="layer-between"><g class="shapelayer"/><g class="imagelayer"/></g><path class="xlines-below"/><path class="ylines-below"/><g class="overlines-below"/><g class="xaxislayer-below"/><g class="yaxislayer-below"/><g class="overaxes-below"/><g class="overplot"><g class="xy" transform="translate(70,50)" clip-path="url(#clip3a7d98xyplot)"><g class="scatterlayer mlayer"><g class="trace scatter trace049850" style="stroke-miterlimit: 2; opacity: 1;"><g class="fills"/><g class="errorbars"/><g class="lines"><path class="js-line" d="M0,22.86L8.5,41.58L17,51.78L25.5,62.74L34,69.29L59.5,91.66L68,97.6L76.5,104L85,107.8L102,117.09L110.5,123.48L136,134.29L144.5,139.46L153,142.51L161.5,147.38L178.5,156.36L187,159.56L195.5,165.34L204,167.63L221,173.56L229.5,177.98L238,181.33L246.5,186.66L255,189.09L263.5,193.35L272,197.31L280.5,202.64L323,218.01L331.5,222.12L340,224.41L348.5,229.58L365.5,236.28L374,239.02L382.5,242.68L391,244.81L399.5,248.46L408,250.9L416.5,254.55L425,256.98L450.5,265.81L459,270.99L467.5,273.27L476,277.38L501.5,285.3L510,288.34L518.5,292L527,296.72L544,303.87L552.5,306.76L578,320.31L586.5,324.12L603.5,332.79L612,337.97L629,347.26L637.5,350.61L646,355.63L654.5,359.28L663,366.59L671.5,371.77L680,378.16L688.5,383.18L697,391.25L705.5,397.19L722.5,409.37L731,417.59L739.5,422.15L748,428.55L765,437.22L773.5,440.27L782,444.38L790.5,447.12L799,451.99L807.5,454.88L816,458.08L824.5,462.49L833,470.56L841.5,475.89L850,479.09" style="vector-effect: none; fill: none; stroke: rgb(255, 0, 0); stroke-opacity: 1; stroke-width: 3px; opacity: 1;"/></g><g class="points"/><g class="text"/></g><g class="trace scatter tracec9a9c9" style="stroke-miterlimit: 2; opacity: 1;"><g class="fills"/><g class="errorbars"/><g class="lines"><path class="js-line" d="M0,22.86L8.5,49.83L17,67.98L25.5,81.4L34,92.32L42.5,103.24L51,111.52L59.5,118.76L68,124.55L76.5,131.65L85,137.31L93.5,143.88L102,148.75L110.5,152.7L119,158.09L136,167.43L144.5,170.33L153,174.27L161.5,179.27L170,184.27L178.5,187.69L221,207.95L229.5,212.03L246.5,218.21L255,222.95L272,229.39L280.5,233.34L297.5,240.71L306,243.08L331.5,253.34L340,257.68L357,265.04L365.5,268.99L382.5,275.83L391,279.25L425,294.91L433.5,298.06L442,302.93L450.5,306.22L467.5,312.14L476,316.61L510,330.43L518.5,335.56L527,341.21L535.5,344.63L561,355.95L569.5,361.21L578,365.29L586.5,367.79L603.5,375.94L612,379.36L654.5,402.52L663,406.33L680,412.91L688.5,417.25L697,421.2L705.5,427.12L714,431.85L722.5,435.54L731,439.61L739.5,445.14L756.5,453.56L765,456.06L790.5,464.74L799,466.45L807.5,470.27L816,472.76L824.5,475.53L833,477.11L841.5,479.47L850,479.87" style="vector-effect: none; fill: none; stroke: rgb(115, 38, 0); stroke-opacity: 1; stroke-width: 3px; opacity: 1;"/></g><g class="points"/><g class="text"/></g><g class="trace scatter trace448d66" style="stroke-miterlimit: 2; opacity: 1;"><g class="fills"/><g class="errorbars"/><g class="lines"><path class="js-line" d="M0,22.86L8.5,62.03L17,80.99L25.5,93.67L34,104.22L42.5,113.51L51,121.04L59.5,129.2L68,135.35L85,148.66L93.5,153.81L102,160.21L110.5,163.98L161.5,190.22L170,194.49L187,201.77L195.5,205.16L229.5,220.86L238,223.49L246.5,225.25L255,228.39L263.5,232.66L272,236.05L306,250.74L314.5,255.13L340,264.17L348.5,267.94L391,284.39L399.5,287.78L408,292.42L416.5,296.19L425,298.83L433.5,302.84L442,307.11L450.5,310.5L501.5,332.22L510,334.73L518.5,340.01L527,343.52L552.5,354.45L561,359.34L569.5,363.49L578,366.5L586.5,370.89L595,373.66L637.5,393.37L646,398.14L671.5,411.32L680,414.71L697,423.25L705.5,427.27L714,432.67L722.5,436.43L731,442.21L739.5,445.97L748,450.87L756.5,454.89L773.5,462.17L782,465.44L790.5,467.44L799,471.21L816,475.98L824.5,477.24L841.5,479.62L850,479.87" style="vector-effect: none; fill: none; stroke: rgb(168, 112, 0); stroke-opacity: 1; stroke-width: 3px; opacity: 1;"/></g><g class="points"/><g class="text"/></g><g class="trace scatter tracea3d8bd" style="stroke-miterlimit: 2; opacity: 1;"><g class="fills"/><g class="errorbars"/><g class="lines"><path class="js-line" d="M0,22.86L8.5,70.69L17,86.64L25.5,99.4L34,109.21L42.5,118.77L51,126.38L76.5,146.13L85,151.65L93.5,155.33L102,160.72L119,171.15L127.5,176.18L136,180.96L144.5,184.76L161.5,192.37L170,194.82L195.5,205.37L204,208.31L212.5,212.12L221,214.82L229.5,217.51L238,221.56L255,227.08L263.5,230.88L272,233.21L280.5,236.77L348.5,260.44L357,263.02L374,270.13L382.5,272.95L425,288.9L433.5,293.81L442,297.24L450.5,299.69L467.5,306.44L476,308.77L510,321.04L518.5,325.45L561,342.99L569.5,347.16L578,351.46L586.5,354.89L595,358.2L603.5,362.99L612,367.65L620.5,370.96L629,373.78L637.5,377.83L680,397.45L688.5,402.11L697,405.3L705.5,409.47L722.5,417.57L731,422.35L765,443.2L773.5,447.37L807.5,467.37L816,471.17L833,476.81L841.5,478.9L850,479.88" style="vector-effect: none; fill: none; stroke: rgb(255, 255, 0); stroke-opacity: 1; stroke-width: 3px; opacity: 1;"/></g><g class="points"/><g class="text"/></g><g class="trace scatter trace6b27d4" style="stroke-miterlimit: 2; opacity: 1;"><g class="fills"/><g class="errorbars"/><g class="lines"><path class="js-line" d="M0,22.86L8.5,74.17L17,87.94L25.5,100.13L34,110.64L51,126.09L59.5,132.37L76.5,145.53L85,150.61L127.5,174.51L136,178.5L170,194.07L178.5,197.09L246.5,225.11L255,227.88L289,239.11L297.5,241.65L314.5,248.41L323,251.79L340,257.35L348.5,260.24L357,262.9L365.5,267.37L382.5,273.89L391,276.06L416.5,285.84L425,289.58L442,294.53L450.5,298.64L459,302.87L467.5,306.25L476,310.47L484.5,313.61L501.5,320.01L510,324.12L527,330.88L535.5,333.78L544,336.55L552.5,340.9L569.5,348.63L578,352.13L595,361.07L603.5,364.08L663,391.37L671.5,395.36L680,399.46L688.5,402.6L697,407.31L705.5,410.21L739.5,429.41L748,435.08L807.5,469.25L816,472.39L833,477.83L841.5,479.4L850,479.88" style="vector-effect: none; fill: none; stroke: rgb(55, 86, 35); stroke-opacity: 1; stroke-width: 3px; opacity: 1;"/></g><g class="points"/><g class="text"/></g><g class="trace scatter trace22083f" style="stroke-miterlimit: 2; opacity: 1;"><g class="fills"/><g class="errorbars"/><g class="lines"><path class="js-line" d="M0,22.86L8.5,76.54L17,89.36L25.5,101.82L34,111.65L42.5,120.28L51,126.39L59.5,132.26L68,137.17L76.5,144.48L85,148.8L110.5,164.37L119,168.33L161.5,187.62L170,192.05L178.5,196.01L187,198.52L212.5,208.71L221,211.59L229.5,216.02L238,219.13L246.5,222.85L255,225.37L297.5,239.15L306,241.78L331.5,251.25L340,254.72L348.5,257.72L357,259.64L365.5,263.35L374,265.63L408,277.97L416.5,281.8L433.5,286.84L442,290.55L459,296.9L467.5,301.1L476,304.93L484.5,309.84L501.5,315.96L510,319.07L518.5,322.19L527,326.14L561,339.44L569.5,343.52L603.5,359.69L612,362.81L620.5,366.52L629,371.08L646,378.27L654.5,382.82L663,386.77L671.5,389.77L680,394.2L688.5,399.48L697,403.91L705.5,406.79L714,410.98L722.5,416.01L748,431.71L756.5,436.86L773.5,446.93L782,450.52L790.5,455.79L799,462.39L816,471.37L824.5,475.33L841.5,479.4L850,479.88" style="vector-effect: none; fill: none; stroke: rgb(171, 205, 102); stroke-opacity: 1; stroke-width: 3px; opacity: 1;"/></g><g class="points"/><g class="text"/></g><g class="trace scatter trace68a131" style="stroke-miterlimit: 2; opacity: 1;"><g class="fills"/><g class="errorbars"/><g class="lines"><path class="js-line" d="M0,22.86L8.5,76.99L17,89.87L25.5,100.84L34,110.26L42.5,118.6L51,124.68L85,146.62L93.5,151.63L119,165.1L127.5,168.2L136,173.33L144.5,176.91L195.5,197.18L204,200.4L221,206.12L229.5,209.1L297.5,233.9L306,236.05L357,254.89L365.5,257.39L382.5,262.52L391,265.02L416.5,274.56L425,278.14L467.5,294.23L476,298.05L484.5,302.22L493,305.2L501.5,308.3L510,312.36L518.5,315.46L527,319.39L535.5,323.68L544,327.02L552.5,329.77L561,334.06L569.5,337.16L578,341.33L595,348.84L603.5,354.45L637.5,371.74L646,375.07L654.5,379.13L663,384.49L697,402.5L705.5,408.22L748,434.57L756.5,439.34L790.5,459.25L799,463.55L816,471.77L824.5,475.11L833,477.73L841.5,478.81L850,479.88" style="vector-effect: none; fill: none; stroke: rgb(205, 245, 122); stroke-opacity: 1; stroke-width: 3px; opacity: 1;"/></g><g class="points"/><g class="text"/></g><g class="trace scatter trace5563cb" style="stroke-miterlimit: 2; opacity: 1;"><g class="fills"/><g class="errorbars"/><g class="lines"><path class="js-line" d="M0,22.86L8.5,77.08L17,90.19L34,110.69L42.5,118.79L68,136.55L76.5,141.67L93.5,151.92L102,156.33L144.5,177.07L153,180.76L187,194.58L195.5,197.68L204,201.26L212.5,203.64L272,224.85L280.5,228.31L297.5,234.74L306,236.89L331.5,246.54L340,249.05L365.5,258.46L374,261.2L382.5,263.23L391,266.09L408,271.45L416.5,276.1L450.5,288.49L459,292.66L467.5,295.16L476,299.57L484.5,303.39L493,306.37L510,313.64L518.5,316.85L535.5,325.2L544,328.06L552.5,331.99L561,334.37L578,342.95L586.5,346.41L595,350.7L603.5,356.42L654.5,381.21L663,385.62L688.5,398.49L697,404.09L714,414.57L722.5,420.53L739.5,431.38L748,436.03L790.5,460.46L799,464.87L816,472.37L824.5,475.47L833,477.85L841.5,478.93L850,479.88" style="vector-effect: none; fill: none; stroke: rgb(122, 182, 245); stroke-opacity: 1; stroke-width: 3px; opacity: 1;"/></g><g class="points"/><g class="text"/></g></g></g></g><g class="zerolinelayer-above"/><path class="xlines-above crisp" d="M0,0" style="fill: none;"/><path class="ylines-above crisp" d="M0,0" style="fill: none;"/><g class="overlines-above"/><g class="xaxislayer-above"><g class="xtick"><text text-anchor="middle" x="0" y="543" transform="translate(70,0)" style="font-family: 'Open Sans', verdana, arial, sans-serif; font-size: 12px; fill: rgb(42, 63, 95); fill-opacity: 1; white-space: pre;">0</text></g><g class="xtick"><text text-anchor="middle" x="0" y="543" style="font-family: 'Open Sans', verdana, arial, sans-serif; font-size: 12px; fill: rgb(42, 63, 95); fill-opacity: 1; white-space: pre;" transform="translate(155,0)">10</text></g><g class="xtick"><text text-anchor="middle" x="0" y="543" style="font-family: 'Open Sans', verdana, arial, sans-serif; font-size: 12px; fill: rgb(42, 63, 95); fill-opacity: 1; white-space: pre;" transform="translate(240,0)">20</text></g><g class="xtick"><text text-anchor="middle" x="0" y="543" style="font-family: 'Open Sans', verdana, arial, sans-serif; font-size: 12px; fill: rgb(42, 63, 95); fill-opacity: 1; white-space: pre;" transform="translate(325,0)">30</text></g><g class="xtick"><text text-anchor="middle" x="0" y="543" style="font-family: 'Open Sans', verdana, arial, sans-serif; font-size: 12px; fill: rgb(42, 63, 95); fill-opacity: 1; white-space: pre;" transform="translate(410,0)">40</text></g><g class="xtick"><text text-anchor="middle" x="0" y="543" style="font-family: 'Open Sans', verdana, arial, sans-serif; font-size: 12px; fill: rgb(42, 63, 95); fill-opacity: 1; white-space: pre;" transform="translate(495,0)">50</text></g><g class="xtick"><text text-anchor="middle" x="0" y="543" style="font-family: 'Open Sans', verdana, arial, sans-serif; font-size: 12px; fill: rgb(42, 63, 95); fill-opacity: 1; white-space: pre;" transform="translate(580,0)">60</text></g><g class="xtick"><text text-anchor="middle" x="0" y="543" style="font-family: 'Open Sans', verdana, arial, sans-serif; font-size: 12px; fill: rgb(42, 63, 95); fill-opacity: 1; white-space: pre;" transform="translate(665,0)">70</text></g><g class="xtick"><text text-anchor="middle" x="0" y="543" style="font-family: 'Open Sans', verdana, arial, sans-serif; font-size: 12px; fill: rgb(42, 63, 95); fill-opacity: 1; white-space: pre;" transform="translate(750,0)">80</text></g><g class="xtick"><text text-anchor="middle" x="0" y="543" style="font-family: 'Open Sans', verdana, arial, sans-serif; font-size: 12px; fill: rgb(42, 63, 95); fill-opacity: 1; white-space: pre;" transform="translate(835,0)">90</text></g><g class="xtick"><text text-anchor="middle" x="0" y="543" style="font-family: 'Open Sans', verdana, arial, sans-serif; font-size: 12px; fill: rgb(42, 63, 95); fill-opacity: 1; white-space: pre;" transform="translate(920,0)">100</text></g></g><g class="yaxislayer-above"><g class="ytick"><text text-anchor="end" x="69" y="4.199999999999999" transform="translate(0,530)" style="font-family: 'Open Sans', verdana, arial, sans-serif; font-size: 12px; fill: rgb(42, 63, 95); fill-opacity: 1; white-space: pre;">0</text></g><g class="ytick"><text text-anchor="end" x="69" y="4.199999999999999" style="font-family: 'Open Sans', verdana, arial, sans-serif; font-size: 12px; fill: rgb(42, 63, 95); fill-opacity: 1; white-space: pre;" transform="translate(0,438.57)">20</text></g><g class="ytick"><text text-anchor="end" x="69" y="4.199999999999999" style="font-family: 'Open Sans', verdana, arial, sans-serif; font-size: 12px; fill: rgb(42, 63, 95); fill-opacity: 1; white-space: pre;" transform="translate(0,347.14)">40</text></g><g class="ytick"><text text-anchor="end" x="69" y="4.199999999999999" style="font-family: 'Open Sans', verdana, arial, sans-serif; font-size: 12px; fill: rgb(42, 63, 95); fill-opacity: 1; white-space: pre;" transform="translate(0,255.71)">60</text></g><g class="ytick"><text text-anchor="end" x="69" y="4.199999999999999" style="font-family: 'Open Sans', verdana, arial, sans-serif; font-size: 12px; fill: rgb(42, 63, 95); fill-opacity: 1; white-space: pre;" transform="translate(0,164.29000000000002)">80</text></g><g class="ytick"><text text-anchor="end" x="69" y="4.199999999999999" style="font-family: 'Open Sans', verdana, arial, sans-serif; font-size: 12px; fill: rgb(42, 63, 95); fill-opacity: 1; white-space: pre;" transform="translate(0,72.86)">100</text></g></g><g class="overaxes-above"/></g></g><g class="polarlayer"/><g class="smithlayer"/><g class="ternarylayer"/><g class="geolayer"/><g class="funnelarealayer"/><g class="pielayer"/><g class="iciclelayer"/><g class="treemaplayer"/><g class="sunburstlayer"/><g class="glimages"/><defs id="topdefs-3a7d98"><g class="clips"/><clipPath id="legend3a7d98"><rect width="203" height="170" x="0" y="0"/></clipPath></defs><g class="layer-above"><g class="imagelayer"/><g class="shapelayer"><g class="shape-group" data-index="0" clip-path="url(#clip3a7d98x)"><path data-index="0" fill-rule="evenodd" d="M282.5,530L282.5,50" style="opacity: 1; stroke: rgb(0, 0, 0); stroke-opacity: 1; fill: rgb(0, 0, 0); fill-opacity: 0; stroke-dasharray: 9px, 9px; stroke-width: 1.5px;"/></g><g class="shape-group" data-index="1" clip-path="url(#clip3a7d98x)"><path data-index="1" fill-rule="evenodd" d="M495,530L495,50" style="opacity: 1; stroke: rgb(0, 0, 0); stroke-opacity: 1; fill: rgb(0, 0, 0); fill-opacity: 0; stroke-dasharray: 9px, 9px; stroke-width: 1.5px;"/></g><g class="shape-group" data-index="2" clip-path="url(#clip3a7d98x)"><path data-index="2" fill-rule="evenodd" d="M707.5,530L707.5,50" style="opacity: 1; stroke: rgb(0, 0, 0); stroke-opacity: 1; fill: rgb(0, 0, 0); fill-opacity: 0; stroke-dasharray: 9px, 9px; stroke-width: 1.5px;"/></g><g class="shape-group" data-index="3" clip-path="url(#clip3a7d98x)"><path data-index="3" fill-rule="evenodd" d="M835,530L835,50" style="opacity: 1; stroke: rgb(0, 0, 0); stroke-opacity: 1; fill: rgb(0, 0, 0); fill-opacity: 0; stroke-dasharray: 9px, 9px; stroke-width: 1.5px;"/></g></g></g><g class="infolayer"><g class="legend" pointer-events="all" transform="translate(937,50)"><rect class="bg" shape-rendering="crispEdges" style="stroke: rgb(68, 68, 68); stroke-opacity: 1; fill: rgb(0, 0, 0); fill-opacity: 0; stroke-width: 0px;" width="203" height="170" x="0" y="0"/><g class="scrollbox" transform="" clip-path="url(#legend3a7d98)"><g class="groups"><g class="traces" transform="translate(0,14.950000000000001)" style="opacity: 1;"><text class="legendtext" text-anchor="start" x="40" y="5.07" style="font-family: 'Open Sans', verdana, arial, sans-serif; font-size: 13px; fill: rgb(42, 63, 95); fill-opacity: 1; white-space: pre;">G1: Urban Core</text><g class="layers" style="opacity: 1;"><g class="legendfill"/><g class="legendlines"><path class="js-line" d="M5,0h30" style="fill: none; stroke: rgb(255, 0, 0); stroke-opacity: 1; stroke-width: 3px;"/></g><g class="legendsymbols"><g class="legendpoints"/></g></g><rect class="legendtoggle" x="0" y="-9.950000000000001" width="197.15625" height="19.900000000000002" style="fill: rgb(0, 0, 0); fill-opacity: 0;"/></g><g class="traces" transform="translate(0,34.85)" style="opacity: 1;"><text class="legendtext" text-anchor="start" x="40" y="5.07" style="font-family: 'Open Sans', verdana, arial, sans-serif; font-size: 13px; fill: rgb(42, 63, 95); fill-opacity: 1; white-space: pre;">G2: Dense Urban</text><g class="layers" style="opacity: 1;"><g class="legendfill"/><g class="legendlines"><path class="js-line" d="M5,0h30" style="fill: none; stroke: rgb(115, 38, 0); stroke-opacity: 1; stroke-width: 3px;"/></g><g class="legendsymbols"><g class="legendpoints"/></g></g><rect class="legendtoggle" x="0" y="-9.950000000000001" width="197.15625" height="19.900000000000002" style="fill: rgb(0, 0, 0); fill-opacity: 0;"/></g><g class="traces" transform="translate(0,54.75000000000001)" style="opacity: 1;"><text class="legendtext" text-anchor="start" x="40" y="5.07" style="font-family: 'Open Sans', verdana, arial, sans-serif; font-size: 13px; fill: rgb(42, 63, 95); fill-opacity: 1; white-space: pre;">G3: Core &amp; Inner</text><g class="layers" style="opacity: 1;"><g class="legendfill"/><g class="legendlines"><path class="js-line" d="M5,0h30" style="fill: none; stroke: rgb(168, 112, 0); stroke-opacity: 1; stroke-width: 3px;"/></g><g class="legendsymbols"><g class="legendpoints"/></g></g><rect class="legendtoggle" x="0" y="-9.950000000000001" width="197.15625" height="19.900000000000002" style="fill: rgb(0, 0, 0); fill-opacity: 0;"/></g><g class="traces" transform="translate(0,74.65)" style="opacity: 1;"><text class="legendtext" text-anchor="start" x="40" y="5.07" style="font-family: 'Open Sans', verdana, arial, sans-serif; font-size: 13px; fill: rgb(42, 63, 95); fill-opacity: 1; white-space: pre;">G4: Urban Fringe</text><g class="layers" style="opacity: 1;"><g class="legendfill"/><g class="legendlines"><path class="js-line" d="M5,0h30" style="fill: none; stroke: rgb(255, 255, 0); stroke-opacity: 1; stroke-width: 3px;"/></g><g class="legendsymbols"><g class="legendpoints"/></g></g><rect class="legendtoggle" x="0" y="-9.950000000000001" width="197.15625" height="19.900000000000002" style="fill: rgb(0, 0, 0); fill-opacity: 0;"/></g><g class="traces" transform="translate(0,94.55000000000001)" style="opacity: 1;"><text class="legendtext" text-anchor="start" x="40" y="5.07" style="font-family: 'Open Sans', verdana, arial, sans-serif; font-size: 13px; fill: rgb(42, 63, 95); fill-opacity: 1; white-space: pre;">G5: Built-Up / Rural Mix</text><g class="layers" style="opacity: 1;"><g class="legendfill"/><g class="legendlines"><path class="js-line" d="M5,0h30" style="fill: none; stroke: rgb(55, 86, 35); stroke-opacity: 1; stroke-width: 3px;"/></g><g class="legendsymbols"><g class="legendpoints"/></g></g><rect class="legendtoggle" x="0" y="-9.950000000000001" width="197.15625" height="19.900000000000002" style="fill: rgb(0, 0, 0); fill-opacity: 0;"/></g><g class="traces" transform="translate(0,114.45000000000002)" style="opacity: 1;"><text class="legendtext" text-anchor="start" x="40" y="5.07" style="font-family: 'Open Sans', verdana, arial, sans-serif; font-size: 13px; fill: rgb(42, 63, 95); fill-opacity: 1; white-space: pre;">G6: Low–Mid Rural</text><g class="layers" style="opacity: 1;"><g class="legendfill"/><g class="legendlines"><path class="js-line" d="M5,0h30" style="fill: none; stroke: rgb(171, 205, 102); stroke-opacity: 1; stroke-width: 3px;"/></g><g class="legendsymbols"><g class="legendpoints"/></g></g><rect class="legendtoggle" x="0" y="-9.950000000000001" width="197.15625" height="19.900000000000002" style="fill: rgb(0, 0, 0); fill-opacity: 0;"/></g><g class="traces" transform="translate(0,134.35000000000002)" style="opacity: 1;"><text class="legendtext" text-anchor="start" x="40" y="5.07" style="font-family: 'Open Sans', verdana, arial, sans-serif; font-size: 13px; fill: rgb(42, 63, 95); fill-opacity: 1; white-space: pre;">G7: Rural Settlements</text><g class="layers" style="opacity: 1;"><g class="legendfill"/><g class="legendlines"><path class="js-line" d="M5,0h30" style="fill: none; stroke: rgb(205, 245, 122); stroke-opacity: 1; stroke-width: 3px;"/></g><g class="legendsymbols"><g class="legendpoints"/></g></g><rect class="legendtoggle" x="0" y="-9.950000000000001" width="197.15625" height="19.900000000000002" style="fill: rgb(0, 0, 0); fill-opacity: 0;"/></g><g class="traces" transform="translate(0,154.25)" style="opacity: 1;"><text class="legendtext" text-anchor="start" x="40" y="5.07" style="font-family: 'Open Sans', verdana, arial, sans-serif; font-size: 13px; fill: rgb(42, 63, 95); fill-opacity: 1; white-space: pre;">G8: All Land</text><g class="layers" style="opacity: 1;"><g class="legendfill"/><g class="legendlines"><path class="js-line" d="M5,0h30" style="fill: none; stroke: rgb(122, 182, 245); stroke-opacity: 1; stroke-width: 3px;"/></g><g class="legendsymbols"><g class="legendpoints"/></g></g><rect class="legendtoggle" x="0" y="-9.950000000000001" width="197.15625" height="19.900000000000002" style="fill: rgb(0, 0, 0); fill-opacity: 0;"/></g></g></g><rect class="scrollbar" rx="20" ry="3" width="0" height="0" style="fill: rgb(128, 139, 164); fill-opacity: 1;" x="0" y="0"/></g><g class="g-gtitle"/><g class="g-xtitle"><text class="xtitle" x="495" y="570.3" text-anchor="middle" style="opacity: 1; font-family: 'Open Sans', verdana, arial, sans-serif; font-size: 14px; fill: rgb(42, 63, 95); fill-opacity: 1; white-space: pre;">Spatial completeness threshold, τ (%)</text></g><g class="g-ytitle"><text class="ytitle" transform="rotate(-90,26.709375,290)" x="26.709375" y="290" text-anchor="middle" style="opacity: 1; font-family: 'Open Sans', verdana, arial, sans-serif; font-size: 14px; fill: rgb(42, 63, 95); fill-opacity: 1; white-space: pre;">Days retained (%)</text></g></g></svg>