<svg class="main-svg" xmlns="http://www.w3.org/2000/svg" xmlns:xlink="http://www.w3.org/1999/xlink" width="3600" height="1800" style="" viewBox="0 0 1200 600"><rect x="0" y="0" width="1200" height="600" style="fill: rgb(0, 0, 0); fill-opacity: 0;"/><defs id="defs-05e7bc"><g class="clips"><clipPath id="clip05e7bcxyplot" class="plotclip"><rect width="1040" height="420"/></clipPath><clipPath id="clip05e7bcxy2plot" class="plotclip"><rect width="1040" height="420"/></clipPath><clipPath class="axesclip" id="clip05e7bcx"><rect x="80" y="0" width="1040" height="600"/></clipPath><clipPath class="axesclip" id="clip05e7bcy"><rect x="0" y="100" width="1200" height="420"/></clipPath><clipPath class="axesclip" id="clip05e7bcxy"><rect x="80" y="100" width="1040" height="420"/></clipPath><clipPath class="axesclip" id="clip05e7bcy2"><rect x="0" y="100" width="1200" height="420"/></clipPath><clipPath class="axesclip" id="clip05e7bcxy2"><rect x="80" y="100" width="1040" height="420"/></clipPath></g><g class="gradients"/><g class="patterns"/></defs><g class="bglayer"><rect class="bg" x="80" y="100" width="1040" height="420" style="fill: rgb(255, 255, 255); fill-opacity: 1; stroke-width: 0;"/></g><g class="layer-below"><g class="imagelayer"/><g class="shapelayer"/></g><g class="cartesianlayer"><g class="subplot xy"><g class="layer-subplot"><g class="shapelayer"/><g class="imagelayer"/></g><g class="minor-gridlayer"><g class="x"/><g class="y"/><g class="y2"/></g><g class="gridlayer"><g class="x"><path class="xgrid crisp" transform="translate(200.86,0)" d="M0,100v420" style="stroke: rgb(235, 240, 248); stroke-opacity: 1; stroke-width: 0.5px;"/><path class="xgrid crisp" transform="translate(424.38,0)" d="M0,100v420" style="stroke: rgb(235, 240, 248); stroke-opacity: 1; stroke-width: 0.5px;"/><path class="xgrid crisp" transform="translate(647.9,0)" d="M0,100v420" style="stroke: rgb(235, 240, 248); stroke-opacity: 1; stroke-width: 0.5px;"/><path class="xgrid crisp" transform="translate(871.41,0)" d="M0,100v420" style="stroke: rgb(235, 240, 248); stroke-opacity: 1; stroke-width: 0.5px;"/><path class="xgrid crisp" transform="translate(1094.9299999999998,0)" d="M0,100v420" style="stroke: rgb(235, 240, 248); stroke-opacity: 1; stroke-width: 0.5px;"/></g><g class="y"><path class="ygrid crisp" transform="translate(0,510.8)" d="M80,0h1040" style="stroke: rgb(235, 240, 248); stroke-opacity: 1; stroke-width: 0.5px;"/><path class="ygrid crisp" transform="translate(0,492.14)" d="M80,0h1040" style="stroke: rgb(235, 240, 248); stroke-opacity: 1; stroke-width: 0.5px;"/><path class="ygrid crisp" transform="translate(0,476.36)" d="M80,0h1040" style="stroke: rgb(235, 240, 248); stroke-opacity: 1; stroke-width: 0.5px;"/><path class="ygrid crisp" transform="translate(0,462.7)" d="M80,0h1040" style="stroke: rgb(235, 240, 248); stroke-opacity: 1; stroke-width: 0.5px;"/><path class="ygrid crisp" transform="translate(0,450.64)" d="M80,0h1040" style="stroke: rgb(235, 240, 248); stroke-opacity: 1; stroke-width: 0.5px;"/><path class="ygrid crisp" transform="translate(0,439.86)" d="M80,0h1040" style="stroke: rgb(235, 240, 248); stroke-opacity: 1; stroke-width: 0.5px;"/><path class="ygrid crisp" transform="translate(0,368.92)" d="M80,0h1040" style="stroke: rgb(235, 240, 248); stroke-opacity: 1; stroke-width: 0.5px;"/><path class="ygrid crisp" transform="translate(0,327.41999999999996)" d="M80,0h1040" style="stroke: rgb(235, 240, 248); stroke-opacity: 1; stroke-width: 0.5px;"/><path class="ygrid crisp" transform="translate(0,297.98)" d="M80,0h1040" style="stroke: rgb(235, 240, 248); stroke-opacity: 1; stroke-width: 0.5px;"/><path class="ygrid crisp" transform="translate(0,275.14)" d="M80,0h1040" style="stroke: rgb(235, 240, 248); stroke-opacity: 1; stroke-width: 0.5px;"/><path class="ygrid crisp" transform="translate(0,256.48)" d="M80,0h1040" style="stroke: rgb(235, 240, 248); stroke-opacity: 1; stroke-width: 0.5px;"/><path class="ygrid crisp" transform="translate(0,240.7)" d="M80,0h1040" style="stroke: rgb(235, 240, 248); stroke-opacity: 1; stroke-width: 0.5px;"/><path class="ygrid crisp" transform="translate(0,227.04000000000002)" d="M80,0h1040" style="stroke: rgb(235, 240, 248); stroke-opacity: 1; stroke-width: 0.5px;"/><path class="ygrid crisp" transform="translate(0,214.98000000000002)" d="M80,0h1040" style="stroke: rgb(235, 240, 248); stroke-opacity: 1; stroke-width: 0.5px;"/><path class="ygrid crisp" transform="translate(0,204.2)" d="M80,0h1040" style="stroke: rgb(235, 240, 248); stroke-opacity: 1; stroke-width: 0.5px;"/><path class="ygrid crisp" transform="translate(0,133.26)" d="M80,0h1040" style="stroke: rgb(235, 240, 248); stroke-opacity: 1; stroke-width: 0.5px;"/></g><g class="y2"/></g><g class="zerolinelayer"><path class="y2zl zl crisp" transform="translate(0,520)" d="M80,0h1040" style="stroke: rgb(235, 240, 248); stroke-opacity: 1; stroke-width: 2px;"/></g><g class="layer-between"><g class="shapelayer"/><g class="imagelayer"/></g><path class="xlines-below"/><path class="ylines-below"/><g class="overlines-below"><path class="xy2-x"/><path class="xy2-y"/></g><g class="xaxislayer-below"/><g class="yaxislayer-below"/><g class="overaxes-below"><g class="xy2-x"/><g class="xy2-y"/></g><g class="overplot"><g class="xy" transform="translate(80,100)" clip-path="url(#clip05e7bcxyplot)"><g class="scatterlayer mlayer"><g class="trace scatter traceb4571a" style="stroke-miterlimit: 2; opacity: 1;"><g class="fills"/><g class="errorbars"/><g class="lines"><path class="js-line" d="M57,219.51L88.93,205.29" style="vector-effect: none; fill: none; stroke: rgb(0, 0, 255); stroke-opacity: 1; stroke-width: 3px; opacity: 1;"/><path class="js-line" d="M152.79,282.95L184.72,285.95L216.66,241.31" style="vector-effect: none; fill: none; stroke: rgb(0, 0, 255); stroke-opacity: 1; stroke-width: 3px; opacity: 1;"/><path class="js-line" d="M312.45,305.49L344.38,309.33L376.31,254.89L408.24,179.69L440.17,394L472.1,262.96L504.03,186.91L535.97,26L567.9,63.12L599.83,38.48" style="vector-effect: none; fill: none; stroke: rgb(0, 0, 255); stroke-opacity: 1; stroke-width: 3px; opacity: 1;"/><path class="js-line" d="M663.69,74.27L695.62,187.38" style="vector-effect: none; fill: none; stroke: rgb(0, 0, 255); stroke-opacity: 1; stroke-width: 3px; opacity: 1;"/><path class="js-line" d="M759.48,207.02L791.41,247.34L823.34,298.38L855.28,273.9L887.21,283.78L919.14,248.73L951.07,235.47L983,283.82" style="vector-effect: none; fill: none; stroke: rgb(0, 0, 255); stroke-opacity: 1; stroke-width: 3px; opacity: 1;"/></g><g class="points"><path class="point" transform="translate(57,219.51)" d="M4,0A4,4 0 1,1 0,-4A4,4 0 0,1 4,0Z" style="opacity: 1; stroke-width: 0px; fill: rgb(0, 0, 255); fill-opacity: 1;"/><path class="point" transform="translate(88.93,205.29)" d="M4,0A4,4 0 1,1 0,-4A4,4 0 0,1 4,0Z" style="opacity: 1; stroke-width: 0px; fill: rgb(0, 0, 255); fill-opacity: 1;"/><path class="point" transform="translate(152.79,282.95)" d="M4,0A4,4 0 1,1 0,-4A4,4 0 0,1 4,0Z" style="opacity: 1; stroke-width: 0px; fill: rgb(0, 0, 255); fill-opacity: 1;"/><path class="point" transform="translate(184.72,285.95)" d="M4,0A4,4 0 1,1 0,-4A4,4 0 0,1 4,0Z" style="opacity: 1; stroke-width: 0px; fill: rgb(0, 0, 255); fill-opacity: 1;"/><path class="point" transform="translate(216.66,241.31)" d="M4,0A4,4 0 1,1 0,-4A4,4 0 0,1 4,0Z" style="opacity: 1; stroke-width: 0px; fill: rgb(0, 0, 255); fill-opacity: 1;"/><path class="point" transform="translate(312.45,305.49)" d="M4,0A4,4 0 1,1 0,-4A4,4 0 0,1 4,0Z" style="opacity: 1; stroke-width: 0px; fill: rgb(0, 0, 255); fill-opacity: 1;"/><path class="point" transform="translate(344.38,309.33)" d="M4,0A4,4 0 1,1 0,-4A4,4 0 0,1 4,0Z" style="opacity: 1; stroke-width: 0px; fill: rgb(0, 0, 255); fill-opacity: 1;"/><path class="point" transform="translate(376.31,254.89)" d="M4,0A4,4 0 1,1 0,-4A4,4 0 0,1 4,0Z" style="opacity: 1; stroke-width: 0px; fill: rgb(0, 0, 255); fill-opacity: 1;"/><path class="point" transform="translate(408.24,179.69)" d="M4,0A4,4 0 1,1 0,-4A4,4 0 0,1 4,0Z" style="opacity: 1; stroke-width: 0px; fill: rgb(0, 0, 255); fill-opacity: 1;"/><path class="point" transform="translate(440.17,394)" d="M4,0A4,4 0 1,1 0,-4A4,4 0 0,1 4,0Z" style="opacity: 1; stroke-width: 0px; fill: rgb(0, 0, 255); fill-opacity: 1;"/><path class="point" transform="translate(472.1,262.96)" d="M4,0A4,4 0 1,1 0,-4A4,4 0 0,1 4,0Z" style="opacity: 1; stroke-width: 0px; fill: rgb(0, 0, 255); fill-opacity: 1;"/><path class="point" transform="translate(504.03,186.91)" d="M4,0A4,4 0 1,1 0,-4A4,4 0 0,1 4,0Z" style="opacity: 1; stroke-width: 0px; fill: rgb(0, 0, 255); fill-opacity: 1;"/><path class="point" transform="translate(535.97,26)" d="M4,0A4,4 0 1,1 0,-4A4,4 0 0,1 4,0Z" style="opacity: 1; stroke-width: 0px; fill: rgb(0, 0, 255); fill-opacity: 1;"/><path class="point" transform="translate(567.9,63.12)" d="M4,0A4,4 0 1,1 0,-4A4,4 0 0,1 4,0Z" style="opacity: 1; stroke-width: 0px; fill: rgb(0, 0, 255); fill-opacity: 1;"/><path class="point" transform="translate(599.83,38.48)" d="M4,0A4,4 0 1,1 0,-4A4,4 0 0,1 4,0Z" style="opacity: 1; stroke-width: 0px; fill: rgb(0, 0, 255); fill-opacity: 1;"/><path class="point" transform="translate(663.69,74.27)" d="M4,0A4,4 0 1,1 0,-4A4,4 0 0,1 4,0Z" style="opacity: 1; stroke-width: 0px; fill: rgb(0, 0, 255); fill-opacity: 1;"/><path class="point" transform="translate(695.62,187.38)" d="M4,0A4,4 0 1,1 0,-4A4,4 0 0,1 4,0Z" style="opacity: 1; stroke-width: 0px; fill: rgb(0, 0, 255); fill-opacity: 1;"/><path class="point" transform="translate(759.48,207.02)" d="M4,0A4,4 0 1,1 0,-4A4,4 0 0,1 4,0Z" style="opacity: 1; stroke-width: 0px; fill: rgb(0, 0, 255); fill-opacity: 1;"/><path class="point" transform="translate(791.41,247.34)" d="M4,0A4,4 0 1,1 0,-4A4,4 0 0,1 4,0Z" style="opacity: 1; stroke-width: 0px; fill: rgb(0, 0, 255); fill-opacity: 1;"/><path class="point" transform="translate(823.34,298.38)" d="M4,0A4,4 0 1,1 0,-4A4,4 0 0,1 4,0Z" style="opacity: 1; stroke-width: 0px; fill: rgb(0, 0, 255); fill-opacity: 1;"/><path class="point" transform="translate(855.28,273.9)" d="M4,0A4,4 0 1,1 0,-4A4,4 0 0,1 4,0Z" style="opacity: 1; stroke-width: 0px; fill: rgb(0, 0, 255); fill-opacity: 1;"/><path class="point" transform="translate(887.21,283.78)" d="M4,0A4,4 0 1,1 0,-4A4,4 0 0,1 4,0Z" style="opacity: 1; stroke-width: 0px; fill: rgb(0, 0, 255); fill-opacity: 1;"/><path class="point" transform="translate(919.14,248.73)" d="M4,0A4,4 0 1,1 0,-4A4,4 0 0,1 4,0Z" style="opacity: 1; stroke-width: 0px; fill: rgb(0, 0, 255); fill-opacity: 1;"/><path class="point" transform="translate(951.07,235.47)" d="M4,0A4,4 0 1,1 0,-4A4,4 0 0,1 4,0Z" style="opacity: 1; stroke-width: 0px; fill: rgb(0, 0, 255); fill-opacity: 1;"/><path class="point" transform="translate(983,283.82)" d="M4,0A4,4 0 1,1 0,-4A4,4 0 0,1 4,0Z" style="opacity: 1; stroke-width: 0px; fill: rgb(0, 0, 255); fill-opacity: 1;"/></g><g class="text"/></g><g class="trace scatter tracef8481f" style="stroke-miterlimit: 2; opacity: 1;"><g class="fills"/><g class="errorbars"/><g class="lines"><path class="js-line" d="M57,233.56L88.93,218.62L120.86,274.86L152.79,272.93L184.72,275.67L248.59,278.48L280.52,278.49L312.45,294.68L344.38,305.18L376.31,299.83L408.24,283.71L440.17,389.11L472.1,327.69L504.03,328.27L535.97,303.34L567.9,321.43L599.83,306.45" style="vector-effect: none; fill: none; stroke: rgb(255, 0, 0); stroke-opacity: 1; stroke-width: 3px; opacity: 1;"/><path class="js-line" d="M663.69,305.32L695.62,307.44L727.55,306.87L759.48,305.3L791.41,270.33L823.34,293.33L855.28,279.25L887.21,294.79L919.14,306.75L951.07,261.9L983,288.3" style="vector-effect: none; fill: none; stroke: rgb(255, 0, 0); stroke-opacity: 1; stroke-width: 3px; opacity: 1;"/></g><g class="points"><path class="point" transform="translate(57,233.56)" d="M4,0A4,4 0 1,1 0,-4A4,4 0 0,1 4,0Z" style="opacity: 1; stroke-width: 0px; fill: rgb(255, 0, 0); fill-opacity: 1;"/><path class="point" transform="translate(88.93,218.62)" d="M4,0A4,4 0 1,1 0,-4A4,4 0 0,1 4,0Z" style="opacity: 1; stroke-width: 0px; fill: rgb(255, 0, 0); fill-opacity: 1;"/><path class="point" transform="translate(120.86,274.86)" d="M4,0A4,4 0 1,1 0,-4A4,4 0 0,1 4,0Z" style="opacity: 1; stroke-width: 0px; fill: rgb(255, 0, 0); fill-opacity: 1;"/><path class="point" transform="translate(152.79,272.93)" d="M4,0A4,4 0 1,1 0,-4A4,4 0 0,1 4,0Z" style="opacity: 1; stroke-width: 0px; fill: rgb(255, 0, 0); fill-opacity: 1;"/><path class="point" transform="translate(184.72,275.67)" d="M4,0A4,4 0 1,1 0,-4A4,4 0 0,1 4,0Z" style="opacity: 1; stroke-width: 0px; fill: rgb(255, 0, 0); fill-opacity: 1;"/><path class="point" transform="translate(216.66,277.37)" d="M4,0A4,4 0 1,1 0,-4A4,4 0 0,1 4,0Z" style="opacity: 1; stroke-width: 0px; fill: rgb(255, 0, 0); fill-opacity: 1;"/><path class="point" transform="translate(248.59,278.48)" d="M4,0A4,4 0 1,1 0,-4A4,4 0 0,1 4,0Z" style="opacity: 1; stroke-width: 0px; fill: rgb(255, 0, 0); fill-opacity: 1;"/><path class="point" transform="translate(280.52,278.49)" d="M4,0A4,4 0 1,1 0,-4A4,4 0 0,1 4,0Z" style="opacity: 1; stroke-width: 0px; fill: rgb(255, 0, 0); fill-opacity: 1;"/><path class="point" transform="translate(312.45,294.68)" d="M4,0A4,4 0 1,1 0,-4A4,4 0 0,1 4,0Z" style="opacity: 1; stroke-width: 0px; fill: rgb(255, 0, 0); fill-opacity: 1;"/><path class="point" transform="translate(344.38,305.18)" d="M4,0A4,4 0 1,1 0,-4A4,4 0 0,1 4,0Z" style="opacity: 1; stroke-width: 0px; fill: rgb(255, 0, 0); fill-opacity: 1;"/><path class="point" transform="translate(376.31,299.83)" d="M4,0A4,4 0 1,1 0,-4A4,4 0 0,1 4,0Z" style="opacity: 1; stroke-width: 0px; fill: rgb(255, 0, 0); fill-opacity: 1;"/><path class="point" transform="translate(408.24,283.71)" d="M4,0A4,4 0 1,1 0,-4A4,4 0 0,1 4,0Z" style="opacity: 1; stroke-width: 0px; fill: rgb(255, 0, 0); fill-opacity: 1;"/><path class="point" transform="translate(440.17,389.11)" d="M4,0A4,4 0 1,1 0,-4A4,4 0 0,1 4,0Z" style="opacity: 1; stroke-width: 0px; fill: rgb(255, 0, 0); fill-opacity: 1;"/><path class="point" transform="translate(472.1,327.69)" d="M4,0A4,4 0 1,1 0,-4A4,4 0 0,1 4,0Z" style="opacity: 1; stroke-width: 0px; fill: rgb(255, 0, 0); fill-opacity: 1;"/><path class="point" transform="translate(504.03,328.27)" d="M4,0A4,4 0 1,1 0,-4A4,4 0 0,1 4,0Z" style="opacity: 1; stroke-width: 0px; fill: rgb(255, 0, 0); fill-opacity: 1;"/><path class="point" transform="translate(535.97,303.34)" d="M4,0A4,4 0 1,1 0,-4A4,4 0 0,1 4,0Z" style="opacity: 1; stroke-width: 0px; fill: rgb(255, 0, 0); fill-opacity: 1;"/><path class="point" transform="translate(567.9,321.43)" d="M4,0A4,4 0 1,1 0,-4A4,4 0 0,1 4,0Z" style="opacity: 1; stroke-width: 0px; fill: rgb(255, 0, 0); fill-opacity: 1;"/><path class="point" transform="translate(599.83,306.45)" d="M4,0A4,4 0 1,1 0,-4A4,4 0 0,1 4,0Z" style="opacity: 1; stroke-width: 0px; fill: rgb(255, 0, 0); fill-opacity: 1;"/><path class="point" transform="translate(663.69,305.32)" d="M4,0A4,4 0 1,1 0,-4A4,4 0 0,1 4,0Z" style="opacity: 1; stroke-width: 0px; fill: rgb(255, 0, 0); fill-opacity: 1;"/><path class="point" transform="translate(695.62,307.44)" d="M4,0A4,4 0 1,1 0,-4A4,4 0 0,1 4,0Z" style="opacity: 1; stroke-width: 0px; fill: rgb(255, 0, 0); fill-opacity: 1;"/><path class="point" transform="translate(727.55,306.87)" d="M4,0A4,4 0 1,1 0,-4A4,4 0 0,1 4,0Z" style="opacity: 1; stroke-width: 0px; fill: rgb(255, 0, 0); fill-opacity: 1;"/><path class="point" transform="translate(759.48,305.3)" d="M4,0A4,4 0 1,1 0,-4A4,4 0 0,1 4,0Z" style="opacity: 1; stroke-width: 0px; fill: rgb(255, 0, 0); fill-opacity: 1;"/><path class="point" transform="translate(791.41,270.33)" d="M4,0A4,4 0 1,1 0,-4A4,4 0 0,1 4,0Z" style="opacity: 1; stroke-width: 0px; fill: rgb(255, 0, 0); fill-opacity: 1;"/><path class="point" transform="translate(823.34,293.33)" d="M4,0A4,4 0 1,1 0,-4A4,4 0 0,1 4,0Z" style="opacity: 1; stroke-width: 0px; fill: rgb(255, 0, 0); fill-opacity: 1;"/><path class="point" transform="translate(855.28,279.25)" d="M4,0A4,4 0 1,1 0,-4A4,4 0 0,1 4,0Z" style="opacity: 1; stroke-width: 0px; fill: rgb(255, 0, 0); fill-opacity: 1;"/><path class="point" transform="translate(887.21,294.79)" d="M4,0A4,4 0 1,1 0,-4A4,4 0 0,1 4,0Z" style="opacity: 1; stroke-width: 0px; fill: rgb(255, 0, 0); fill-opacity: 1;"/><path class="point" transform="translate(919.14,306.75)" d="M4,0A4,4 0 1,1 0,-4A4,4 0 0,1 4,0Z" style="opacity: 1; stroke-width: 0px; fill: rgb(255, 0, 0); fill-opacity: 1;"/><path class="point" transform="translate(951.07,261.9)" d="M4,0A4,4 0 1,1 0,-4A4,4 0 0,1 4,0Z" style="opacity: 1; stroke-width: 0px; fill: rgb(255, 0, 0); fill-opacity: 1;"/><path class="point" transform="translate(983,288.3)" d="M4,0A4,4 0 1,1 0,-4A4,4 0 0,1 4,0Z" style="opacity: 1; stroke-width: 0px; fill: rgb(255, 0, 0); fill-opacity: 1;"/></g><g class="text"/></g></g></g><g class="xy2" transform="translate(80,100)" clip-path="url(#clip05e7bcxy2plot)"><g class="barlayer mlayer"><g class="trace bars" style="opacity: 1;"><g class="points"><g class="point"><path d="M41.03,420V133.61H72.97V420Z" style="vector-effect: none; opacity: 1; stroke-width: 0.5px; fill: rgb(0, 128, 0); fill-opacity: 0.15; stroke: rgb(255, 255, 255); stroke-opacity: 1;"/></g><g class="point"><path d="M72.97,420V144.11H104.9V420Z" style="vector-effect: none; opacity: 1; stroke-width: 0.5px; fill: rgb(0, 128, 0); fill-opacity: 0.15; stroke: rgb(255, 255, 255); stroke-opacity: 1;"/></g><g class="point"><path d="M104.9,420V420H136.83V420Z" style="vector-effect: none; opacity: 1; stroke-width: 0.5px; fill: rgb(0, 128, 0); fill-opacity: 0.15; stroke: rgb(255, 255, 255); stroke-opacity: 1;"/></g><g class="point"><path d="M136.83,420V320.96H168.76V420Z" style="vector-effect: none; opacity: 1; stroke-width: 0.5px; fill: rgb(0, 128, 0); fill-opacity: 0.15; stroke: rgb(255, 255, 255); stroke-opacity: 1;"/></g><g class="point"><path d="M168.76,420V318.84H200.69V420Z" style="vector-effect: none; opacity: 1; stroke-width: 0.5px; fill: rgb(0, 128, 0); fill-opacity: 0.15; stroke: rgb(255, 255, 255); stroke-opacity: 1;"/></g><g class="point"><path d="M200.69,420V413.69H232.62V420Z" style="vector-effect: none; opacity: 1; stroke-width: 0.5px; fill: rgb(0, 128, 0); fill-opacity: 0.15; stroke: rgb(255, 255, 255); stroke-opacity: 1;"/></g><g class="point"><path d="M232.62,420V420H264.55V420Z" style="vector-effect: none; opacity: 1; stroke-width: 0.5px; fill: rgb(0, 128, 0); fill-opacity: 0.15; stroke: rgb(255, 255, 255); stroke-opacity: 1;"/></g><g class="point"><path d="M264.55,420V420H296.48V420Z" style="vector-effect: none; opacity: 1; stroke-width: 0.5px; fill: rgb(0, 128, 0); fill-opacity: 0.15; stroke: rgb(255, 255, 255); stroke-opacity: 1;"/></g><g class="point"><path d="M296.48,420V219.96H328.41V420Z" style="vector-effect: none; opacity: 1; stroke-width: 0.5px; fill: rgb(0, 128, 0); fill-opacity: 0.15; stroke: rgb(255, 255, 255); stroke-opacity: 1;"/></g><g class="point"><path d="M328.41,420V91.22H360.34V420Z" style="vector-effect: none; opacity: 1; stroke-width: 0.5px; fill: rgb(0, 128, 0); fill-opacity: 0.15; stroke: rgb(255, 255, 255); stroke-opacity: 1;"/></g><g class="point"><path d="M360.34,420V383.89H392.28V420Z" style="vector-effect: none; opacity: 1; stroke-width: 0.5px; fill: rgb(0, 128, 0); fill-opacity: 0.15; stroke: rgb(255, 255, 255); stroke-opacity: 1;"/></g><g class="point"><path d="M392.28,420V255.23H424.21V420Z" style="vector-effect: none; opacity: 1; stroke-width: 0.5px; fill: rgb(0, 128, 0); fill-opacity: 0.15; stroke: rgb(255, 255, 255); stroke-opacity: 1;"/></g><g class="point"><path d="M424.21,420V11.76H456.14V420Z" style="vector-effect: none; opacity: 1; stroke-width: 0.5px; fill: rgb(0, 128, 0); fill-opacity: 0.15; stroke: rgb(255, 255, 255); stroke-opacity: 1;"/></g><g class="point"><path d="M456.14,420V106.51H488.07V420Z" style="vector-effect: none; opacity: 1; stroke-width: 0.5px; fill: rgb(0, 128, 0); fill-opacity: 0.15; stroke: rgb(255, 255, 255); stroke-opacity: 1;"/></g><g class="point"><path d="M488.07,420V137.32H520V420Z" style="vector-effect: none; opacity: 1; stroke-width: 0.5px; fill: rgb(0, 128, 0); fill-opacity: 0.15; stroke: rgb(255, 255, 255); stroke-opacity: 1;"/></g><g class="point"><path d="M520,420V295.74H551.93V420Z" style="vector-effect: none; opacity: 1; stroke-width: 0.5px; fill: rgb(0, 128, 0); fill-opacity: 0.15; stroke: rgb(255, 255, 255); stroke-opacity: 1;"/></g><g class="point"><path d="M551.93,420V129.77H583.86V420Z" style="vector-effect: none; opacity: 1; stroke-width: 0.5px; fill: rgb(0, 128, 0); fill-opacity: 0.15; stroke: rgb(255, 255, 255); stroke-opacity: 1;"/></g><g class="point"><path d="M583.86,420V141.53H615.79V420Z" style="vector-effect: none; opacity: 1; stroke-width: 0.5px; fill: rgb(0, 128, 0); fill-opacity: 0.15; stroke: rgb(255, 255, 255); stroke-opacity: 1;"/></g><g class="point"><path d="M0,0Z" style="vector-effect: none; opacity: 1; stroke-width: 0px; fill: rgb(0, 128, 0); fill-opacity: 0.15; stroke: rgb(255, 255, 255); stroke-opacity: 1;"/></g><g class="point"><path d="M647.72,420V413.47H679.66V420Z" style="vector-effect: none; opacity: 1; stroke-width: 0.5px; fill: rgb(0, 128, 0); fill-opacity: 0.15; stroke: rgb(255, 255, 255); stroke-opacity: 1;"/></g><g class="point"><path d="M679.66,420V407.47H711.59V420Z" style="vector-effect: none; opacity: 1; stroke-width: 0.5px; fill: rgb(0, 128, 0); fill-opacity: 0.15; stroke: rgb(255, 255, 255); stroke-opacity: 1;"/></g><g class="point"><path d="M711.59,420V420H743.52V420Z" style="vector-effect: none; opacity: 1; stroke-width: 0.5px; fill: rgb(0, 128, 0); fill-opacity: 0.15; stroke: rgb(255, 255, 255); stroke-opacity: 1;"/></g><g class="point"><path d="M743.52,420V414.72H775.45V420Z" style="vector-effect: none; opacity: 1; stroke-width: 0.5px; fill: rgb(0, 128, 0); fill-opacity: 0.15; stroke: rgb(255, 255, 255); stroke-opacity: 1;"/></g><g class="point"><path d="M775.45,420V79.84H807.38V420Z" style="vector-effect: none; opacity: 1; stroke-width: 0.5px; fill: rgb(0, 128, 0); fill-opacity: 0.15; stroke: rgb(255, 255, 255); stroke-opacity: 1;"/></g><g class="point"><path d="M807.38,420V206.08H839.31V420Z" style="vector-effect: none; opacity: 1; stroke-width: 0.5px; fill: rgb(0, 128, 0); fill-opacity: 0.15; stroke: rgb(255, 255, 255); stroke-opacity: 1;"/></g><g class="point"><path d="M839.31,420V183.63H871.24V420Z" style="vector-effect: none; opacity: 1; stroke-width: 0.5px; fill: rgb(0, 128, 0); fill-opacity: 0.15; stroke: rgb(255, 255, 255); stroke-opacity: 1;"/></g><g class="point"><path d="M871.24,420V311.78H903.17V420Z" style="vector-effect: none; opacity: 1; stroke-width: 0.5px; fill: rgb(0, 128, 0); fill-opacity: 0.15; stroke: rgb(255, 255, 255); stroke-opacity: 1;"/></g><g class="point"><path d="M903.17,420V416.23H935.1V420Z" style="vector-effect: none; opacity: 1; stroke-width: 0.5px; fill: rgb(0, 128, 0); fill-opacity: 0.15; stroke: rgb(255, 255, 255); stroke-opacity: 1;"/></g><g class="point"><path d="M935.1,420V169.9H967.03V420Z" style="vector-effect: none; opacity: 1; stroke-width: 0.5px; fill: rgb(0, 128, 0); fill-opacity: 0.15; stroke: rgb(255, 255, 255); stroke-opacity: 1;"/></g><g class="point"><path d="M967.03,420V95.89H998.97V420Z" style="vector-effect: none; opacity: 1; stroke-width: 0.5px; fill: rgb(0, 128, 0); fill-opacity: 0.15; stroke: rgb(255, 255, 255); stroke-opacity: 1;"/></g></g></g></g></g></g><g class="zerolinelayer-above"/><path class="xlines-above crisp" d="M0,0" style="fill: none;"/><path class="ylines-above crisp" d="M0,0" style="fill: none;"/><g class="overlines-above"><path class="xy2-x crisp" d="M0,0" style="fill: none;"/><path class="xy2-y crisp" d="M0,0" style="fill: none;"/></g><g class="xaxislayer-above"><g class="xtick"><text text-anchor="middle" x="0" y="535" transform="translate(200.86,0)" style="font-family: 'Open Sans', verdana, arial, sans-serif; font-size: 14px; fill: rgb(42, 63, 95); fill-opacity: 1; white-space: pre;"><tspan class="line" dy="0em" x="0" y="535">Nov 3</tspan><tspan class="line" dy="1.3em" x="0" y="535">2013</tspan></text></g><g class="xtick"><text text-anchor="middle" x="0" y="535" style="font-family: 'Open Sans', verdana, arial, sans-serif; font-size: 14px; fill: rgb(42, 63, 95); fill-opacity: 1; white-space: pre;" transform="translate(424.38,0)">Nov 10</text></g><g class="xtick"><text text-anchor="middle" x="0" y="535" style="font-family: 'Open Sans', verdana, arial, sans-serif; font-size: 14px; fill: rgb(42, 63, 95); fill-opacity: 1; white-space: pre;" transform="translate(647.9,0)">Nov 17</text></g><g class="xtick"><text text-anchor="middle" x="0" y="535" style="font-family: 'Open Sans', verdana, arial, sans-serif; font-size: 14px; fill: rgb(42, 63, 95); fill-opacity: 1; white-space: pre;" transform="translate(871.41,0)">Nov 24</text></g><g class="xtick"><text text-anchor="middle" x="0" y="535" style="font-family: 'Open Sans', verdana, arial, sans-serif; font-size: 14px; fill: rgb(42, 63, 95); fill-opacity: 1; white-space: pre;" transform="translate(1094.9299999999998,0)">Dec 1</text></g></g><g class="yaxislayer-above"><g class="ytick"><text text-anchor="end" x="79" y="4.199999999999999" transform="translate(0,510.8)" style="font-family: 'Open Sans', verdana, arial, sans-serif; font-size: 12px; fill: rgb(42, 63, 95); fill-opacity: 1; white-space: pre;">5</text></g><g class="ytick"><text text-anchor="end" x="79" y="4.199999999999999" style="font-family: 'Open Sans', verdana, arial, sans-serif; font-size: 12px; fill: rgb(42, 63, 95); fill-opacity: 1; white-space: pre;" transform="translate(0,492.14)">6</text></g><g class="ytick"><text text-anchor="end" x="79" y="4.199999999999999" style="font-family: 'Open Sans', verdana, arial, sans-serif; font-size: 12px; fill: rgb(42, 63, 95); fill-opacity: 1; white-space: pre;" transform="translate(0,476.36)">7</text></g><g class="ytick"><text text-anchor="end" x="79" y="4.199999999999999" style="font-family: 'Open Sans', verdana, arial, sans-serif; font-size: 12px; fill: rgb(42, 63, 95); fill-opacity: 1; white-space: pre;" transform="translate(0,462.7)">8</text></g><g class="ytick"><text text-anchor="end" x="79" y="4.199999999999999" style="font-family: 'Open Sans', verdana, arial, sans-serif; font-size: 12px; fill: rgb(42, 63, 95); fill-opacity: 1; white-space: pre;" transform="translate(0,450.64)">9</text></g><g class="ytick"><text text-anchor="end" x="75" y="2.933333333333333" style="font-family: 'Open Sans', verdana, arial, sans-serif; font-size: 16px; fill: rgb(42, 63, 95); fill-opacity: 1; white-space: pre;" transform="translate(0,439.86)">0.1</text></g><g class="ytick"><text text-anchor="end" x="79" y="4.199999999999999" style="font-family: 'Open Sans', verdana, arial, sans-serif; font-size: 12px; fill: rgb(42, 63, 95); fill-opacity: 1; white-space: pre;" transform="translate(0,368.92)">2</text></g><g class="ytick"><text text-anchor="end" x="79" y="4.199999999999999" style="font-family: 'Open Sans', verdana, arial, sans-serif; font-size: 12px; fill: rgb(42, 63, 95); fill-opacity: 1; white-space: pre;" transform="translate(0,327.41999999999996)">3</text></g><g class="ytick"><text text-anchor="end" x="79" y="4.199999999999999" style="font-family: 'Open Sans', verdana, arial, sans-serif; font-size: 12px; fill: rgb(42, 63, 95); fill-opacity: 1; white-space: pre;" transform="translate(0,297.98)">4</text></g><g class="ytick"><text text-anchor="end" x="79" y="4.199999999999999" style="font-family: 'Open Sans', verdana, arial, sans-serif; font-size: 12px; fill: rgb(42, 63, 95); fill-opacity: 1; white-space: pre;" transform="translate(0,275.14)">5</text></g><g class="ytick"><text text-anchor="end" x="79" y="4.199999999999999" style="font-family: 'Open Sans', verdana, arial, sans-serif; font-size: 12px; fill: rgb(42, 63, 95); fill-opacity: 1; white-space: pre;" transform="translate(0,256.48)">6</text></g><g class="ytick"><text text-anchor="end" x="79" y="4.199999999999999" style="font-family: 'Open Sans', verdana, arial, sans-serif; font-size: 12px; fill: rgb(42, 63, 95); fill-opacity: 1; white-space: pre;" transform="translate(0,240.7)">7</text></g><g class="ytick"><text text-anchor="end" x="79" y="4.199999999999999" style="font-family: 'Open Sans', verdana, arial, sans-serif; font-size: 12px; fill: rgb(42, 63, 95); fill-opacity: 1; white-space: pre;" transform="translate(0,227.04000000000002)">8</text></g><g class="ytick"><text text-anchor="end" x="79" y="4.199999999999999" style="font-family: 'Open Sans', verdana, arial, sans-serif; font-size: 12px; fill: rgb(42, 63, 95); fill-opacity: 1; white-space: pre;" transform="translate(0,214.98000000000002)">9</text></g><g class="ytick"><text text-anchor="end" x="75" y="2.933333333333333" style="font-family: 'Open Sans', verdana, arial, sans-serif; font-size: 16px; fill: rgb(42, 63, 95); fill-opacity: 1; white-space: pre;" transform="translate(0,204.2)">1</text></g><g class="ytick"><text text-anchor="end" x="79" y="4.199999999999999" style="font-family: 'Open Sans', verdana, arial, sans-serif; font-size: 12px; fill: rgb(42, 63, 95); fill-opacity: 1; white-space: pre;" transform="translate(0,133.26)">2</text></g></g><g class="overaxes-above"><g class="xy2-x"/><g class="xy2-y"><g class="y2tick"><text text-anchor="start" x="1121" y="7" transform="translate(0,520)" style="font-family: 'Open Sans', verdana, arial, sans-serif; font-size: 20px; fill: rgb(0, 128, 0); fill-opacity: 1; white-space: pre;">0</text></g><g class="y2tick"><text text-anchor="start" x="1121" y="7" style="font-family: 'Open Sans', verdana, arial, sans-serif; font-size: 20px; fill: rgb(0, 128, 0); fill-opacity: 1; white-space: pre;" transform="translate(0,436)">20</text></g><g class="y2tick"><text text-anchor="start" x="1121" y="7" style="font-family: 'Open Sans', verdana, arial, sans-serif; font-size: 20px; fill: rgb(0, 128, 0); fill-opacity: 1; white-space: pre;" transform="translate(0,352)">40</text></g><g class="y2tick"><text text-anchor="start" x="1121" y="7" style="font-family: 'Open Sans', verdana, arial, sans-serif; font-size: 20px; fill: rgb(0, 128, 0); fill-opacity: 1; white-space: pre;" transform="translate(0,268)">60</text></g><g class="y2tick"><text text-anchor="start" x="1121" y="7" style="font-family: 'Open Sans', verdana, arial, sans-serif; font-size: 20px; fill: rgb(0, 128, 0); fill-opacity: 1; white-space: pre;" transform="translate(0,184)">80</text></g><g class="y2tick"><text text-anchor="start" x="1121" y="7" style="font-family: 'Open Sans', verdana, arial, sans-serif; font-size: 20px; fill: rgb(0, 128, 0); fill-opacity: 1; white-space: pre;" transform="translate(0,100)">100</text></g></g></g></g><g class="subplot xy2"/></g><g class="polarlayer"/><g class="smithlayer"/><g class="ternarylayer"/><g class="geolayer"/><g class="funnelarealayer"/><g class="pielayer"/><g class="iciclelayer"/><g class="treemaplayer"/><g class="sunburstlayer"/><g class="glimages"/><defs id="topdefs-05e7bc"><g class="clips"/><clipPath id="legend05e7bc"><rect width="319" height="68" x="0" y="0"/></clipPath></defs><g class="layer-above"><g class="imagelayer"/><g class="shapelayer"><g class="shape-group" data-index="0" clip-path="url(#clip05e7bcx)"><path data-index="0" fill-rule="evenodd" d="M360.52,520L360.52,100" style="opacity: 1; stroke: rgb(0, 0, 0); stroke-opacity: 1; fill: rgb(0, 0, 0); fill-opacity: 0; stroke-dasharray: 9px, 9px; stroke-width: 2px;"/></g></g></g><g class="infolayer"><g class="legend" pointer-events="all" transform="translate(704,66.39999999999998)"><rect class="bg" shape-rendering="crispEdges" style="stroke: rgb(68, 68, 68); stroke-opacity: 1; fill: rgb(0, 0, 0); fill-opacity: 0; stroke-width: 0px;" width="319" height="68" x="0" y="0"/><g class="scrollbox" transform="" clip-path="url(#legend05e7bc)"><g class="groups"><g class="traces" transform="translate(0,19.5)" style="opacity: 1;"><text class="legendtext" text-anchor="start" x="40" y="7.8" style="font-family: 'Open Sans', verdana, arial, sans-serif; font-size: 20px; fill: rgb(42, 63, 95); fill-opacity: 1; white-space: pre;">Observed NTL (DNB-BRDF)</text><g class="layers" style="opacity: 1;"><g class="legendfill"/><g class="legendlines"><path class="js-line" d="M5,0h30" style="fill: none; stroke: rgb(0, 0, 255); stroke-opacity: 1; stroke-width: 3px;"/></g><g class="legendsymbols"><g class="legendpoints"><path class="scatterpts" transform="translate(20,0)" d="M4,0A4,4 0 1,1 0,-4A4,4 0 0,1 4,0Z" style="opacity: 1; stroke-width: 0px; fill: rgb(0, 0, 255); fill-opacity: 1;"/></g></g></g><rect class="legendtoggle" x="0" y="-14.5" width="313.546875" height="29" style="fill: rgb(0, 0, 0); fill-opacity: 0;"/></g><g class="traces" transform="translate(0,48.5)" style="opacity: 1;"><text class="legendtext" text-anchor="start" x="40" y="7.8" style="font-family: 'Open Sans', verdana, arial, sans-serif; font-size: 20px; fill: rgb(42, 63, 95); fill-opacity: 1; white-space: pre;">Gap-Filled NTL</text><g class="layers" style="opacity: 1;"><g class="legendfill"/><g class="legendlines"><path class="js-line" d="M5,0h30" style="fill: none; stroke: rgb(255, 0, 0); stroke-opacity: 1; stroke-width: 3px;"/></g><g class="legendsymbols"><g class="legendpoints"><path class="scatterpts" transform="translate(20,0)" d="M4,0A4,4 0 1,1 0,-4A4,4 0 0,1 4,0Z" style="opacity: 1; stroke-width: 0px; fill: rgb(255, 0, 0); fill-opacity: 1;"/></g></g></g><rect class="legendtoggle" x="0" y="-14.5" width="313.546875" height="29" style="fill: rgb(0, 0, 0); fill-opacity: 0;"/></g></g></g><rect class="scrollbar" rx="20" ry="3" width="0" height="0" style="fill: rgb(128, 139, 164); fill-opacity: 1;" x="0" y="0"/></g><g class="g-gtitle"/><g class="g-xtitle"/><g class="g-ytitle"><text class="ytitle" transform="rotate(-90,27.328125,310)" x="27.328125" y="310" text-anchor="middle" style="opacity: 1; font-family: 'Open Sans', verdana, arial, sans-serif; font-size: 20px; fill: rgb(42, 63, 95); fill-opacity: 1; white-space: pre;">Radiance (nW·cm⁻²·sr⁻¹)</text></g><g class="g-y2title"><text class="y2title" transform="rotate(-90,1187.65625,310)" x="1187.65625" y="310" text-anchor="middle" style="opacity: 1; font-family: 'Open Sans', verdana, arial, sans-serif; font-size: 20px; fill: rgb(0, 128, 0); fill-opacity: 1; white-space: pre;">Spatial Completeness (%)</text></g><g class="annotation" data-index="0" style="opacity: 1;"><g class="annotation-text-g" transform="rotate(0,435.02,107.6)"><g class="cursor-pointer" transform="translate(361,92)"><rect class="bg" x="0.5" y="0.5" width="148" height="31" style="stroke-width: 1px; stroke: rgb(0, 0, 0); stroke-opacity: 1; fill: rgb(255, 255, 255); fill-opacity: 1;"/><text class="annotation-text" text-anchor="middle" x="74.28125" y="23" style="font-family: 'Open Sans', verdana, arial, sans-serif; font-size: 18px; fill: rgb(0, 0, 0); fill-opacity: 1; white-space: pre;">Haiyan Landfall</text></g></g></g></g></svg>